<svg width="1105" height="519" viewBox="0 0 1105 519" fill="none" xmlns="http://www.w3.org/2000/svg">
<g clip-path="url(#clip0_2408_1038)">
<path d="M1122.95 116.666L1064.05 82.6055V150.343L1122.95 184.403V116.666Z" fill="white" fill-opacity="0.2"/>
<path d="M887.718 184.402L946.623 218.462V286.2L887.718 252.522V184.402Z" fill="white" fill-opacity="0.2"/>
<path d="M1005 388L1063.91 422.06V489.797L1005 456.12V388Z" fill="white" fill-opacity="0.2"/>
<path d="M535.046 320.26L476.523 286.2V354.32L535.046 387.998V320.26Z" fill="white" fill-opacity="0.2"/>
<path d="M593.95 422.058L535.045 387.998V456.118L593.95 489.796V422.058Z" fill="white" fill-opacity="0.2"/>
<path opacity="0.5" fill-rule="evenodd" clip-rule="evenodd" d="M241.287 286.583L299.809 320.26V387.615V387.997V388.244L308 393L308.004 393.038L359.096 422.44H359.479L417.619 388.763V456.118V456.5H418.001L476.523 490.178H476.906L535.811 524.238H536.193L594.715 490.56L653.238 524.238H653.62C653.62 524.238 654.003 524.238 654.003 523.855V523.472L595.863 489.795L653.763 456.638L710.995 489.412V489.297L712.525 490.178V490.999L711.76 490.56V557.532L712.143 557.752L654.003 591.21C653.62 591.21 653.62 591.593 654.003 591.593L654.385 591.975H654.768L713.193 558.353L752.918 581.103L771.431 591.756L771.047 591.975L798.523 607.71L829.187 626.035H829.569L888.474 591.975V591.593V523.855V523.472H888.092L829.952 489.795L836.837 485.968L887.709 456.5L946.232 490.178V557.915C946.232 558.298 946.232 558.298 946.614 558.298C946.997 558.298 946.996 558.298 946.996 557.915V490.178L1005.52 456.5L1064.42 490.56H1064.81L1123.33 456.883L1181.09 490.178L1122.95 523.855C1122.56 523.855 1122.56 524.238 1122.95 524.238L1123.33 524.62H1123.71L1182.23 490.943L1241.14 525.003H1241.52L1300.43 490.943V490.56V422.823L1321.84 410.577L1358.18 389.747V455.735L1358.56 455.954V456.883V457.266H1358.95L1417.85 491.326H1418.23H1418.62V423.588L1445.77 407.898L1477.14 389.911C1477.52 389.911 1477.52 389.528 1477.14 389.528L1476.76 389.146H1476.37L1417.85 422.823L1359.33 389.146V321.791L1408.29 293.471L1417.09 288.496V354.32C1417.09 354.703 1417.09 354.703 1417.47 354.703C1417.85 354.703 1417.85 354.703 1417.85 354.32V286.583L1447.3 269.744L1476.76 252.905V252.523V184.403V184.02H1476.37L1417.85 150.342V83.3704L1475.99 117.048H1476.37H1476.76V116.665L1418.23 82.9877V14.8676C1418.23 14.6762 1418.23 14.5805 1418.19 14.5327C1418.14 14.4849 1418.04 14.4849 1417.85 14.4849C1417.47 14.4849 1417.47 14.4849 1417.47 14.8676V82.605L1358.95 116.282L1339.44 105.184L1300.43 82.605H1300.04H1299.66L1241.14 116.282L1215.13 101.357L1182.62 82.605V14.8676L1241.14 -18.8098C1241.52 -18.8098 1241.52 -19.1925 1241.14 -19.1925C1241.14 -19.5752 1240.76 -19.5752 1240.76 -19.1925L1181.09 14.4849V14.8676V82.2223L1122.95 48.1623H1122.56L1063.66 82.2223V149.96L1005.52 183.254V116.665C1005.52 116.474 1005.52 116.378 1005.47 116.33C1005.42 116.282 1005.33 116.282 1005.14 116.282C1004.95 116.282 1004.85 116.282 1004.8 116.33C1004.75 116.378 1004.75 116.474 1004.75 116.665V184.403L977.596 200.093L946.232 218.08L887.709 184.403V116.665L946.232 82.9877C946.614 82.9877 946.614 82.605 946.232 82.605C946.232 82.2223 945.849 82.2223 945.849 82.605L887.327 116.282L887 116.091V116.094L887.327 116.282V183.254L829.187 149.96H828.804L769.9 184.02V251.757L711.377 285.435L652.855 251.757H652.473V252.14L710.612 285.817L652.09 319.495V319.877V387.232L593.95 353.937V286.583V286.2V218.463C593.95 218.08 593.95 218.08 593.568 218.08C593.185 218.08 593.185 218.08 593.185 218.463V286.2L534.663 319.877L476.523 286.583L534.663 252.905C535.046 252.905 535.046 252.523 534.663 252.523C534.663 252.14 534.281 252.14 534.281 252.523L475.376 286.583L417.236 320.04L359.096 286.583L358.853 286.723L357.949 286.2H357.566L300.192 319.877L241.669 286.2H241.287C240.904 286.2 240.904 286.583 241.287 286.583ZM358.853 286.723L300.574 320.26V387.232L358.714 353.555H359.096L417.619 387.232V320.26L417.236 320.04L416.854 320.26L358.853 286.723ZM1358.56 455.954L1416.32 489.03V422.058L1358.18 388.763V389.747L1358.56 389.528V455.954ZM798.523 607.71L829.187 625.27L887.327 591.975L829.187 558.68L771.431 591.756L771.812 591.975H772.195L798.523 607.71ZM752.918 581.103L713.29 558.298L713.193 558.353L712.143 557.752L712.525 557.532V490.999L769.9 523.855V590.827L752.918 581.103ZM710.995 489.297V422.058L652.855 388.763V456.118L653.763 456.638L654.003 456.5L710.995 489.297ZM476.906 490.178L535.046 456.883L593.185 490.178L535.046 523.472L476.906 490.178ZM418.384 387.997L476.141 354.703L534.281 387.997L517.068 397.948L476.141 421.292L418.384 387.997ZM712.142 489.795L729.355 479.845L770.282 456.5L828.422 489.795L770.282 523.09L712.142 489.795ZM770.665 591.21V524.238L828.804 490.943V557.915L770.665 591.21ZM828.804 218.463V285.435L770.665 252.14V185.168L828.804 218.463ZM769.9 320.643V387.615L711.76 354.32V287.348L769.9 320.643ZM593.568 422.44V489.412L535.428 456.118V388.763L593.568 422.44ZM476.906 353.937V286.965L535.046 320.26V387.232L476.906 353.937ZM536.193 387.997L594.333 354.703L652.473 387.997L635.26 397.948L594.333 421.292L536.193 387.997ZM653.62 387.997L711.76 354.703L769.9 387.997L711.76 421.292L653.62 387.997ZM887.327 320.643V387.615L829.187 354.32V287.348L887.327 320.643ZM1004.75 387.232L946.614 353.937V286.965L1004.75 320.26V387.232ZM888.092 320.643L945.849 287.348V354.32L888.092 387.615V320.643ZM770.665 320.643L828.422 287.348V354.32L770.665 387.615V320.643ZM888.092 185.168L946.232 218.463V285.435L888.092 252.14V185.168ZM980.656 267.065L1005.14 252.905L1062.89 286.2L1005.14 319.877L946.996 286.583L980.656 267.065ZM1063.66 286.965V353.937L1005.9 387.232V320.26L1057.92 290.027L1063.66 286.965ZM1004.37 387.997L946.232 421.292L888.474 387.997L946.614 354.703L1004.37 387.997ZM946.232 489.412L888.092 456.118V388.763L946.232 422.058V489.412ZM887.327 455.735L828.804 489.412L770.282 455.735V388.763L828.422 422.44H828.804H829.187V422.058L771.047 388.38L829.187 355.086L887.709 388.763V455.735H887.327ZM761.102 461.093L712.142 489.412V422.44L727.06 413.638L769.9 388.763V455.735L761.102 461.093ZM652.473 455.735L594.333 489.03V422.058L611.928 411.725L652.09 388.38V455.735H652.473ZM712.142 286.2L770.282 252.905L828.422 286.2L770.282 319.495L712.142 286.2ZM863.229 198.945L887.327 185.168V252.523V252.905H887.709L945.849 286.583L888.092 319.877L829.569 286.2V218.463L863.229 198.945ZM971.859 204.303L1005.14 185.168V252.14L971.094 271.658L946.996 285.435V218.463L971.859 204.303ZM1092.35 202.389L1122.56 185.168V252.14L1088.52 271.658L1064.42 285.435L1006.28 252.14V184.785H1005.9L1064.42 151.108L1122.56 184.403L1100.38 197.414L1064.42 218.08V218.463L1092.35 202.389ZM1181.85 489.412V422.44L1189.5 417.848L1239.61 388.763V455.735L1181.85 489.412ZM1416.7 151.108L1474.84 184.403L1416.7 217.697L1358.56 184.403L1386.1 168.329L1416.7 151.108ZM1240.76 387.232V320.26L1289.33 292.323L1298.9 286.965V353.937L1240.76 387.232ZM1209.77 270.509L1240.37 252.905L1298.51 286.2L1240.76 319.495L1182.62 286.2L1209.77 270.509ZM1156.99 165.268L1181.47 151.108L1239.61 184.403L1181.47 217.697L1123.71 184.403L1156.99 165.268ZM1298.9 218.463V285.435L1240.76 252.14V185.168L1298.9 218.463ZM1181.85 353.937V286.965L1239.99 320.26V387.232L1207.48 368.48L1181.85 353.937ZM1181.47 285.817L1122.95 252.14V185.168L1163.49 208.512L1181.09 218.845H1181.47L1239.61 185.168V252.14L1212.45 267.831L1181.47 285.817ZM1123.33 183.637V116.665L1181.47 83.3704V150.342L1147.43 169.86L1123.33 183.637ZM1231.19 392.973L1181.85 421.675L1124.09 388.38L1172.29 360.443L1182.23 354.703L1240.37 387.997L1231.19 392.973ZM1123.33 320.643L1181.47 287.348V354.32L1132.51 382.64L1123.71 387.615V320.643H1123.33ZM1064.42 150.342V83.3704L1122.56 116.665V183.637L1064.42 150.342ZM1181.85 83.3704L1239.99 116.665V183.637L1181.85 150.342V83.3704ZM1240.76 183.637V116.665L1298.9 83.3704V150.342L1264.85 169.86L1240.76 183.637ZM1299.66 83.3704L1357.8 116.665V184.02L1323.76 203.537L1299.28 217.697L1241.14 184.403L1269.83 167.564L1299.28 150.725V150.342V83.3704H1299.66ZM1416.32 285.435L1358.18 252.14V185.168L1416.32 218.463V285.435ZM1330.26 267.831L1299.66 285.435V218.463L1333.7 198.945L1357.8 185.168V252.14L1330.26 267.831ZM1416.32 83.3704V150.342L1393.75 163.354L1358.56 183.637V116.665L1416.32 83.3704ZM1441.18 271.658L1417.09 285.435V218.463L1459.93 193.587L1475.23 184.785V251.757L1441.18 271.658ZM1367.74 314.137L1357.8 319.877L1345.56 312.989L1299.66 286.583L1327.2 270.509L1357.8 252.905L1415.56 286.2L1367.74 314.137ZM1357.42 387.232L1318.78 365.036L1299.28 353.937V286.965L1311.14 293.854L1357.42 320.643V387.232ZM1339.06 398.713L1298.9 422.058V422.44V489.795L1240.76 456.5V389.146L1299.28 355.468L1314.58 364.27L1357.03 388.763L1339.06 398.713ZM1182.23 489.795L1240.37 456.5L1298.51 489.795L1240.37 523.09L1182.23 489.795ZM1181.09 489.412L1122.95 456.118V388.763L1181.09 422.058V489.412ZM1111.09 394.503L1064.04 421.675L1006.28 388.38L1056.77 359.295L1064.81 354.703V354.32V286.583L1098.85 267.065L1123.33 252.905L1181.47 286.2L1138.63 310.693L1122.95 319.877V320.26V387.997L1122.18 388.417V388.38L1121.04 389.041L1111.09 394.503ZM1121.04 389.041L1122.18 388.417V455.735H1122.56L1064.42 489.03V422.058L1082.02 411.725L1121.04 389.041ZM1063.66 489.412L1005.52 456.118V388.763L1063.66 422.058V489.412ZM887.327 591.21L829.187 557.915V490.943L887.327 524.238V591.21ZM476.906 489.412V422.44L494.501 412.107L534.663 388.763V455.735L483.791 485.203L476.906 489.412ZM476.141 286.965V353.937L418.384 387.232V320.26L476.141 286.965ZM593.568 286.965V353.937L535.428 387.232V320.26L580.563 294.237L593.568 286.965ZM653.238 320.643L710.995 287.348V354.32L653.238 387.615V320.643ZM829.187 151.108L887.327 184.403L854.049 203.92L829.569 218.08L771.43 184.785L829.187 151.108ZM1122.95 49.3103L1181.09 82.605L1122.95 115.9L1064.81 82.605L1122.95 49.3103ZM1004.75 455.735L946.614 489.03V422.058L953.881 417.848L1004.37 388.763V455.735H1004.75ZM476.141 489.412L418.001 456.118V388.763L476.141 422.058V489.412ZM359.096 421.675L300.957 388.38L358.714 355.086L416.854 388.38L359.096 421.675Z" fill="url(#paint0_linear_2408_1038)"/>
</g>
<defs>
<linearGradient id="paint0_linear_2408_1038" x1="241.031" y1="303.279" x2="824.963" y2="303.279" gradientUnits="userSpaceOnUse">
<stop stop-color="white"/>
<stop offset="1" stop-color="#8BC7FF"/>
</linearGradient>
<clipPath id="clip0_2408_1038">
<rect width="1105" height="519" fill="white"/>
</clipPath>
</defs>
</svg>
