<svg width="1013" height="440" viewBox="0 0 1013 440" fill="none" xmlns="http://www.w3.org/2000/svg">
<g clip-path="url(#clip0_2408_1033)">
<path opacity="0.6" d="M-236.108 -112.199L-177.387 -78.255V-10.6517V-10.3665V-10.0812V57.8073C-177.387 58.0926 -177.102 58.0926 -177.102 58.0926C-176.816 58.0926 -176.816 57.8073 -176.816 57.8073V-9.51073L-118.381 24.4336H-118.095L-59.6596 -9.79596V57.5221V57.8073H-59.3745L-0.653572 91.7516H-0.368501L58.6375 125.981H58.9226L117.644 92.0368L176.364 125.981C176.364 125.981 176.364 125.981 176.65 125.981C176.65 125.981 176.935 125.981 176.935 125.696C176.935 125.411 176.935 125.125 176.65 125.125L118.214 91.4664L176.364 57.8073L234.8 91.7516V159.64L176.079 193.584C175.794 193.584 175.794 193.87 175.794 194.155L176.079 194.44C176.079 194.44 176.079 194.44 176.364 194.44L235.085 160.496L293.521 194.44L293.806 194.725L352.812 228.67H353.097L412.103 194.44V193.87V125.696V125.411H411.818L353.383 91.7516L360.224 87.7582L411.533 58.0926L469.969 92.0368V159.925C469.969 160.211 470.254 160.211 470.254 160.211L470.539 159.925V92.0368L528.975 58.0926L587.981 92.0368H588.266L646.987 58.0926L705.138 91.7516L647.843 125.411C647.558 125.411 647.558 125.696 647.558 125.981L647.843 126.266C647.843 126.266 647.842 126.266 648.128 126.266L706.849 92.3221L765.855 126.266H766.14L825.146 92.0368V91.7516V23.863L846.525 11.5975L883.296 -9.51073V57.8073V58.0926H883.582L942.588 92.0368C942.588 92.0368 942.588 92.0368 942.873 92.0368C942.873 92.0368 943.158 92.0368 943.158 91.7516V23.863L970.238 8.17452L1001.88 -10.0812C1002.16 -10.0812 1002.16 -10.3664 1002.16 -10.6517L1001.88 -10.9369H1001.59L942.873 23.0073L884.437 -10.9369V-78.5403L933.751 -107.065L942.588 -112.199V-44.8812C942.588 -44.596 942.873 -44.596 942.873 -44.596C943.158 -44.596 943.158 -44.8812 943.158 -44.8812V-112.77L972.518 -129.599L1002.16 -146.714V-146.999V-214.603V-214.888H1001.88L943.158 -248.832V-316.15L1001.59 -282.491C1001.59 -282.491 1001.59 -282.491 1001.88 -282.491C1001.88 -282.491 1002.16 -282.491 1002.16 -282.776C1002.16 -283.062 1002.16 -283.347 1001.88 -283.347L943.158 -317.291V-384.894C943.158 -385.18 942.873 -385.18 942.873 -385.18L942.588 -384.894V-317.006L883.867 -283.347L864.483 -294.471L825.146 -317.006H824.861H824.576L765.855 -283.062L739.915 -298.18L707.419 -317.006V-384.609L766.14 -418.553C766.425 -418.553 766.425 -418.839 766.425 -419.124C766.425 -419.409 766.14 -419.409 765.855 -419.409L706.849 -385.18V-384.894V-317.576L648.413 -351.521H648.128L589.122 -317.291V-249.117L530.971 -215.458V-282.776C530.971 -283.062 530.686 -283.062 530.686 -283.062C530.401 -283.062 530.401 -282.776 530.401 -282.776V-214.888L503.035 -199.199L471.68 -181.229L413.244 -215.173V-282.491L471.965 -316.435C472.25 -316.435 472.25 -316.721 472.25 -317.006C472.25 -317.291 471.965 -317.291 471.68 -317.291L412.959 -283.347L353.668 -317.291C353.383 -317.291 353.097 -317.291 353.097 -317.006C353.097 -316.721 353.097 -316.435 353.383 -316.435L411.818 -282.491V-215.458L353.383 -249.403H353.097L294.092 -215.173V-146.999L235.656 -113.055L176.935 -146.999C176.65 -146.999 176.364 -146.999 176.364 -146.714C176.364 -146.429 176.364 -146.144 176.65 -146.144L235.085 -112.485L176.65 -78.5403V-78.255V-10.9369L118.499 -44.596V-112.199V-112.485V-180.658C118.499 -180.944 118.214 -180.944 118.214 -180.944C117.929 -180.944 117.929 -180.658 117.929 -180.658V-112.77L59.4927 -78.8255L1.34182 -112.485L59.7777 -146.144C60.0628 -146.144 60.0628 -146.429 60.0628 -146.714C60.0628 -146.999 59.7777 -146.999 59.4927 -146.999L0.486644 -112.77L-57.9493 -78.8255L-116.955 -112.77H-117.24L-175.961 -78.8255L-235.822 -112.77C-236.108 -112.77 -236.393 -112.77 -236.393 -112.485C-236.393 -112.485 -236.393 -112.199 -236.108 -112.199ZM-58.2343 -10.3665L-0.0834475 -44.0255L58.0674 -10.3665L40.6791 -0.382883L-0.0834475 23.2926L-58.2343 -10.3665ZM236.226 91.7516L253.614 81.768L294.377 58.0926L352.527 91.7516L294.377 125.411L236.226 91.7516ZM294.947 193.299V126.266L353.097 92.6073V159.64L294.947 193.299ZM353.097 -180.373V-113.34L294.947 -146.999V-214.032L353.097 -180.373ZM294.092 -78.255V-11.2222L235.941 -44.8812V-111.914L294.092 -78.255ZM117.358 23.863V91.1811L59.2076 57.5221V-9.51073L117.358 23.863ZM0.20159 -44.596V-111.629L58.3524 -77.9698V-10.9369L0.20159 -44.596ZM59.4927 -10.3665L117.644 -44.0255L175.794 -10.3665L158.406 -0.382883L117.644 23.2926L59.4927 -10.3665ZM177.505 -10.3665L235.656 -44.0255L293.806 -10.3665L235.656 23.2926L177.505 -10.3665ZM411.818 -78.255V-11.2222L353.668 -44.596V-111.629L411.818 -78.255ZM529.83 -11.2222L471.68 -44.8812V-111.914L529.83 -78.255V-11.2222ZM412.674 -78.255L470.824 -111.914V-44.8812L412.674 -11.2222V-78.255ZM294.947 -78.255L353.097 -111.914V-44.8812L294.947 -11.2222V-78.255ZM412.674 -214.032L470.824 -180.373V-113.34L412.674 -146.999V-214.032ZM505.601 -131.881L530.116 -146.144L588.266 -112.485L530.116 -78.8255L471.965 -112.485L505.601 -131.881ZM588.836 -111.914V-44.8812L530.686 -11.2222V-78.255L582.85 -108.491L588.836 -111.914ZM529.545 -10.3665L471.395 23.2926L413.244 -10.3665L471.395 -44.0255L529.545 -10.3665ZM470.824 91.1811L412.674 57.5221V-9.51073L470.824 24.1483V91.1811ZM411.818 57.5221L353.383 91.1811L294.947 57.2368V-9.79596L353.383 23.863C353.383 23.863 353.383 23.863 353.668 23.863C353.668 23.863 353.953 23.8631 353.953 23.5778C353.953 23.2926 353.953 23.0073 353.668 23.0073L295.232 -10.6517L353.383 -44.3107L411.818 -10.3665V57.5221ZM284.97 62.6565L235.656 91.1811V24.1483L250.763 15.5909L293.806 -9.22548V57.8073L284.97 62.6565ZM235.085 91.1811L176.935 57.5221V-9.51073L235.085 24.1483V91.1811ZM176.079 57.5221L117.929 91.1811V24.1483L135.602 13.8794L176.079 -9.51073V57.5221ZM236.226 -112.485L294.377 -146.144L352.527 -112.485L294.377 -78.8255L236.226 -112.485ZM387.874 -200.055L412.103 -214.032V-146.714V-146.429H412.389L470.824 -112.77L412.674 -79.1107L353.668 -112.77V-180.373L387.874 -200.055ZM496.479 -194.635L529.83 -214.032V-146.999L495.909 -127.317L471.68 -113.34V-180.373L496.479 -194.635ZM617.627 -196.632L647.843 -214.032V-146.999L613.921 -127.317L589.692 -113.34V-180.373L617.627 -196.632ZM707.419 91.1811V24.1483L715.115 19.5844L765.57 -9.51073V57.5221L707.419 91.1811ZM942.873 -248.262L1001.02 -214.603L942.873 -180.944L884.722 -214.603L912.372 -230.576L942.873 -248.262ZM824.576 -44.596L766.425 -10.9369V-77.9698L815.169 -105.924L824.576 -111.344V-44.596ZM735.354 -128.458L765.855 -146.144L824.005 -112.485L765.855 -78.8255L707.704 -112.485L735.354 -128.458ZM682.334 -233.999L706.849 -248.262L764.999 -214.603L707.134 -181.229L648.983 -214.888L682.334 -233.999ZM824.576 -180.373V-113.34L766.425 -146.999V-214.032L824.576 -180.373ZM707.419 -44.596V-111.629L765.57 -77.9698V-10.9369L733.073 -29.7632L707.419 -44.596ZM707.134 -113.055L648.698 -146.999V-214.032L689.46 -190.357L707.134 -180.088H707.419L765.57 -214.032V-146.999L738.204 -131.311L707.134 -113.055ZM648.413 -215.458V-282.491L706.563 -316.15V-249.117L672.642 -229.435L648.413 -215.458ZM756.733 -5.51727L707.134 23.0073L648.983 -10.6517L697.157 -38.6058L707.134 -44.3107L765.284 -10.6517L756.733 -5.51727ZM648.413 -78.255L706.563 -111.914V-44.8812L657.249 -16.3566L648.413 -11.2222V-78.255ZM589.692 -249.117V-316.15L647.558 -282.491V-215.458L589.692 -249.117ZM707.419 -316.15L765.57 -282.491V-215.458L707.419 -249.117V-316.15ZM766.425 -215.458V-282.491L824.576 -316.15V-249.117L790.654 -229.435L766.425 -215.458ZM825.431 -316.15L883.582 -282.491V-214.888L849.66 -195.206L825.146 -180.944L766.995 -214.603L796.07 -231.432L825.716 -248.547V-248.832V-316.15H825.431ZM942.302 -113.34L884.152 -146.999V-214.032L942.302 -180.373V-113.34ZM856.216 -131.026L825.431 -113.055V-180.373L859.352 -200.055L883.582 -214.032V-146.999L856.216 -131.026ZM942.302 -316.15V-249.117L919.498 -235.996L884.152 -215.458V-282.491L942.302 -316.15ZM967.387 -127.317L943.158 -113.34V-180.373L986.201 -205.189L1001.31 -214.032V-146.999L967.387 -127.317ZM893.843 -84.8156L883.867 -79.1107L871.609 -86.2419L825.716 -112.77L853.366 -128.744L883.867 -146.429L942.017 -112.77L893.843 -84.8156ZM883.582 -11.2222L844.814 -33.4714L825.431 -44.596V-111.629L837.403 -104.783L883.582 -77.9698V-11.2222ZM884.152 -9.79596L942.302 23.863V91.1811L884.152 57.5221V-9.79596ZM864.768 0.187663L824.29 23.5778V23.863V91.1811L766.14 57.5221V-10.0812L824.576 -44.0255L839.968 -35.1829L882.726 -10.6517L864.768 0.187663ZM707.704 91.7516L765.855 58.0926L824.005 91.7516L765.855 125.411L707.704 91.7516ZM706.563 91.1811L648.413 57.5221V-9.51073L706.563 24.1483V91.1811ZM636.44 -4.09102L589.407 23.2926L531.256 -10.3665L581.995 -39.7468L589.977 -44.3107V-44.596V-112.485L623.898 -132.167L648.413 -146.429L706.563 -112.77L663.805 -87.9534L648.128 -78.8255V-78.5403V-10.6517L636.44 -4.09102ZM588.836 91.1811L530.686 57.5221V-9.51073L588.836 24.1483V91.1811ZM411.818 193.299L353.668 159.64V92.6073L411.818 126.266V193.299ZM0.20159 91.1811V24.1483L17.8749 13.8794L58.3524 -9.51073V57.5221L7.32793 86.9024L0.20159 91.1811ZM-0.653572 -111.914V-44.8812L-58.8044 -11.2222V-78.255L-0.653572 -111.914ZM117.358 -111.914V-44.8812L59.2076 -11.2222V-78.255L104.531 -104.498L117.358 -111.914ZM176.935 -78.255L235.085 -111.914V-44.8812L176.935 -11.2222V-78.255ZM353.383 -248.262L411.533 -214.603L377.897 -195.206L353.383 -180.944L295.232 -214.603L353.383 -248.262ZM530.686 -214.603L589.122 -248.262L647.272 -214.603L625.038 -201.766L588.836 -180.944V-180.658V-113.34L530.686 -146.999V-214.603ZM648.128 -350.38L706.278 -316.721L648.128 -283.062L589.977 -316.721L648.128 -350.38ZM647.558 57.5221L589.692 91.1811V24.1483L607.365 13.8794L647.843 -9.51073V57.5221H647.558ZM529.83 57.5221L471.68 91.1811V24.1483L479.091 19.8696L529.83 -9.51073V57.5221ZM353.383 227.529L295.232 193.87L353.383 160.211L411.533 193.87L353.383 227.529ZM235.941 159.64V92.6073L294.092 126.266V193.299L235.941 159.64ZM58.6375 125.411L0.486644 91.7516L58.6375 58.0926L116.788 91.7516L58.6375 125.411ZM-0.653572 91.1811L-58.8044 57.5221V-9.51073L-0.653572 24.1483V91.1811ZM-118.095 23.2926L-176.246 -10.3665L-118.095 -44.0255L-59.9446 -10.3665L-118.095 23.2926ZM-176.531 -11.2222V-78.255L-118.095 -112.199L-59.6596 -78.255V-11.2222L-118.095 -45.1665H-118.381L-176.531 -11.2222Z" fill="url(#paint0_linear_2408_1033)"/>
<path d="M294.905 126.06L236 92V160.12L294.905 193.797V126.06Z" fill="white" fill-opacity="0.2"/>
<path d="M117.905 24.06L59 -10V58.1201L117.905 91.7975V24.06Z" fill="white" fill-opacity="0.2"/>
<path d="M706.905 23.06L648 -11V57.1201L706.905 90.7975V23.06Z" fill="white" fill-opacity="0.2"/>
</g>
<defs>
<linearGradient id="paint0_linear_2408_1033" x1="-252.488" y1="-95.4847" x2="409.6" y2="-95.4847" gradientUnits="userSpaceOnUse">
<stop stop-color="white" stop-opacity="0"/>
<stop offset="0.179515" stop-color="white" stop-opacity="0.51"/>
<stop offset="1" stop-color="#00C2FF"/>
</linearGradient>
<clipPath id="clip0_2408_1033">
<rect width="1013" height="440" fill="white"/>
</clipPath>
</defs>
</svg>
