<svg width="863" height="211" viewBox="0 0 863 211" fill="none" xmlns="http://www.w3.org/2000/svg">
<path opacity="0.5" fill-rule="evenodd" clip-rule="evenodd" d="M0.286874 150.583L58.8091 184.26V251.615V251.997V252.244L67 257L67.0037 257.038L118.096 286.44H118.479L176.619 252.763V320.118V320.5H177.001L235.523 354.178H235.906L294.811 388.238H295.193L353.715 354.56L412.238 388.238H412.62C412.62 388.238 413.003 388.238 413.003 387.855V387.472L354.863 353.795L412.763 320.638L469.995 353.412V353.297L471.525 354.178V354.999L470.76 354.56V421.532L471.143 421.752L413.003 455.21C412.62 455.21 412.62 455.593 413.003 455.593L413.385 455.975H413.768L472.193 422.353L511.918 445.103L530.431 455.756L530.047 455.975L557.523 471.71L588.187 490.035H588.569L647.474 455.975V455.593V387.855V387.472H647.092L588.952 353.795L595.837 349.968L646.709 320.5L705.232 354.178V421.915C705.232 422.298 705.232 422.298 705.614 422.298C705.997 422.298 705.996 422.298 705.996 421.915V354.178L764.519 320.5L823.423 354.56H823.806L882.328 320.883L940.086 354.178L881.946 387.855C881.563 387.855 881.563 388.238 881.946 388.238L882.328 388.62H882.711L941.233 354.943L1000.14 389.003H1000.52L1059.43 354.943V354.56V286.823L1080.84 274.577L1117.18 253.747V319.735L1117.56 319.954V320.883V321.266H1117.95L1176.85 355.326H1177.23H1177.62V287.588L1204.77 271.898L1236.14 253.911C1236.52 253.911 1236.52 253.528 1236.14 253.528L1235.76 253.146H1235.37L1176.85 286.823L1118.33 253.146V185.791L1167.29 157.471L1176.09 152.496V218.32C1176.09 218.703 1176.09 218.703 1176.47 218.703C1176.85 218.703 1176.85 218.703 1176.85 218.32V150.583L1206.3 133.744L1235.76 116.905V116.523V48.4025V48.0198H1235.37L1176.85 14.3424V-52.6296L1234.99 -18.9522H1235.37H1235.76V-19.3349L1177.23 -53.0123V-121.132C1177.23 -121.324 1177.23 -121.419 1177.19 -121.467C1177.14 -121.515 1177.04 -121.515 1176.85 -121.515C1176.47 -121.515 1176.47 -121.515 1176.47 -121.132V-53.395L1117.95 -19.7176L1098.44 -30.8158L1059.43 -53.395H1059.04H1058.66L1000.14 -19.7176L974.128 -34.6428L941.615 -53.395V-121.132L1000.14 -154.81C1000.52 -154.81 1000.52 -155.192 1000.14 -155.192C1000.14 -155.575 999.755 -155.575 999.755 -155.192L940.086 -121.515V-121.132V-53.7777L881.946 -87.8377H881.563L822.658 -53.7777V13.9597L764.519 47.2544V-19.3349C764.519 -19.5263 764.519 -19.622 764.471 -19.6698C764.423 -19.7176 764.327 -19.7176 764.136 -19.7176C763.945 -19.7176 763.849 -19.7176 763.802 -19.6698C763.754 -19.622 763.754 -19.5263 763.754 -19.3349V48.4025L736.596 64.0931L705.232 82.0799L646.709 48.4025V47.9971L597.627 19.3659L588.187 13.9597H587.804L528.9 48.0198V115.757L470.377 149.435L411.855 115.757H411.473V116.14L469.612 149.817L411.09 183.495V183.877V251.232L352.95 217.937V150.583V150.2V82.4626C352.95 82.0799 352.95 82.0799 352.568 82.0799C352.377 82.0799 352.281 82.0799 352.233 82.1277C352.185 82.1755 352.185 82.2711 352.185 82.4622V82.4626V150.2L293.663 183.877L235.523 150.583L293.663 116.905C294.046 116.905 294.046 116.523 293.663 116.523C293.663 116.14 293.281 116.14 293.281 116.523L234.376 150.583L176.236 184.04L118.096 150.583L117.853 150.723L116.949 150.2H116.566L59.1916 183.877L0.669366 150.2H0.286874C-0.0956246 150.2 -0.0956246 150.583 0.286874 150.583ZM117.853 150.723L59.5741 184.26V251.232L117.714 217.555H118.096L176.619 251.232V184.26L176.236 184.04L175.854 184.26L117.853 150.723ZM1117.56 319.954L1175.32 353.03V286.058L1117.18 252.763V253.747L1117.56 253.528V319.954ZM557.523 471.71L588.187 489.27L646.327 455.975L588.187 422.68L530.431 455.756L530.812 455.975H531.195L557.523 471.71ZM511.918 445.103L472.29 422.298L472.193 422.353L471.143 421.752L471.525 421.532V354.999L528.9 387.855V454.827L511.918 445.103ZM469.995 353.297V286.058L411.855 252.763V320.118L412.763 320.638L413.003 320.5L469.995 353.297ZM235.906 354.178L294.046 320.883L352.185 354.178L294.046 387.472L235.906 354.178ZM177.384 251.997L235.141 218.703L293.281 251.997L276.068 261.948L235.141 285.292L177.384 251.997ZM471.142 353.795L488.355 343.845L529.282 320.5L587.422 353.795L529.282 387.09L471.142 353.795ZM529.665 455.21V388.238L587.804 354.943V421.915L529.665 455.21ZM587.804 82.4626V149.435L529.665 116.14V49.1679L587.804 82.4626ZM528.9 184.643V251.615L470.76 218.32V151.348L528.9 184.643ZM352.568 286.44V353.412L294.428 320.118V252.763L352.568 286.44ZM235.906 217.937V150.965L294.046 184.26V251.232L235.906 217.937ZM295.193 251.997L353.333 218.703L411.473 251.997L394.26 261.948L353.333 285.292L295.193 251.997ZM412.62 251.997L470.76 218.703L528.9 251.997L470.76 285.292L412.62 251.997ZM646.327 184.643V251.615L588.187 218.32V151.348L646.327 184.643ZM763.754 251.232L705.614 217.937V150.965L763.754 184.26V251.232ZM647.092 184.643L704.849 151.348V218.32L647.092 251.615V184.643ZM529.665 184.643L587.422 151.348V218.32L529.665 251.615V184.643ZM647.092 49.1679L705.232 82.4626V149.435L647.092 116.14V49.1679ZM739.656 131.065L764.136 116.905L821.893 150.2L764.136 183.877L705.996 150.583L739.656 131.065ZM822.658 150.965V217.937L764.901 251.232V184.26L816.921 154.027L822.658 150.965ZM763.371 251.997L705.232 285.292L647.474 251.997L705.614 218.703L763.371 251.997ZM705.232 353.412L647.092 320.118V252.763L705.232 286.058V353.412ZM646.327 319.735L587.804 353.412L529.282 319.735V252.763L587.422 286.44H587.804H588.187V286.058L530.047 252.38L588.187 219.086L646.709 252.763V319.735H646.327ZM520.102 325.093L471.142 353.412V286.44L486.06 277.638L528.9 252.763V319.735L520.102 325.093ZM411.473 319.735L353.333 353.03V286.058L370.928 275.725L411.09 252.38V319.735H411.473ZM471.142 150.2L529.282 116.905L587.422 150.2L529.282 183.495L471.142 150.2ZM622.229 62.945L646.327 49.1679V116.523V116.905H646.709L704.849 150.583L647.092 183.877L588.569 150.2V82.4626L622.229 62.945ZM730.859 68.3028L764.136 49.1679V116.14L730.094 135.658L705.996 149.435V82.4626L730.859 68.3028ZM851.346 66.3893L881.563 49.1679V116.14L847.521 135.658L823.423 149.435L765.284 116.14V48.7852H764.901L823.423 15.1078L881.563 48.4025L859.378 61.4142L823.423 82.0799V82.4626L851.346 66.3893ZM940.851 353.412V286.44L948.5 281.848L998.608 252.763V319.735L940.851 353.412ZM1175.7 15.1078L1233.84 48.4025L1175.7 81.6972L1117.56 48.4025L1145.1 32.3292L1175.7 15.1078ZM999.755 251.232V184.26L1048.33 156.323L1057.9 150.965V217.937L999.755 251.232ZM968.773 134.509L999.373 116.905L1057.51 150.2L999.755 183.495L941.615 150.2L968.773 134.509ZM915.988 29.2676L940.468 15.1078L998.608 48.4025L940.468 81.6972L882.711 48.4025L915.988 29.2676ZM1057.9 82.4626V149.435L999.755 116.14V49.1679L1057.9 82.4626ZM940.851 217.937V150.965L998.99 184.26V251.232L966.478 232.48L940.851 217.937ZM940.468 149.817L881.946 116.14V49.1679L922.491 72.5125L940.086 82.8453H940.468L998.608 49.1679V116.14L971.45 131.831L940.468 149.817ZM882.328 47.6371V-19.3349L940.468 -52.6296V14.3424L906.426 33.86L882.328 47.6371ZM990.193 256.973L940.851 285.675L883.093 252.38L931.288 224.443L941.233 218.703L999.373 251.997L990.193 256.973ZM882.328 184.643L940.468 151.348V218.32L891.508 246.64L882.711 251.615V184.643H882.328ZM823.423 14.3424V-52.6296L881.563 -19.3349V47.6371L823.423 14.3424ZM940.851 -52.6296L998.99 -19.3349V47.6371L940.851 14.3424V-52.6296ZM999.755 47.6371V-19.3349L1057.9 -52.6296V14.3424L1023.85 33.86L999.755 47.6371ZM1058.66 -52.6296L1116.8 -19.3349V48.0198L1082.76 67.5374L1058.28 81.6972L1000.14 48.4025L1028.83 31.5638L1058.28 14.7252V14.3424V-52.6296H1058.66ZM1175.32 149.435L1117.18 116.14V49.1679L1175.32 82.4626V149.435ZM1089.26 131.831L1058.66 149.435V82.4626L1092.7 62.945L1116.8 49.1679V116.14L1089.26 131.831ZM1175.32 -52.6296V14.3424L1152.75 27.3542L1117.56 47.6371V-19.3349L1175.32 -52.6296ZM1200.18 135.658L1176.09 149.435V82.4626L1218.93 57.5872L1234.23 48.7852V115.757L1200.18 135.658ZM1126.74 178.137L1116.8 183.877L1104.56 176.989L1058.66 150.583L1086.2 134.509L1116.8 116.905L1174.56 150.2L1126.74 178.137ZM1116.42 251.232L1077.78 229.036L1058.28 217.937V150.965L1070.14 157.854L1116.42 184.643V251.232ZM1098.06 262.713L1057.9 286.058V286.44V353.795L999.755 320.5V253.146L1058.28 219.468L1073.58 228.27L1116.03 252.763L1098.06 262.713ZM941.233 353.795L999.373 320.5L1057.51 353.795L999.373 387.09L941.233 353.795ZM940.086 353.412L881.946 320.118V252.763L940.086 286.058V353.412ZM870.088 258.503L823.041 285.675L765.284 252.38L815.773 223.295L823.806 218.703V218.32V150.583L857.848 131.065L882.328 116.905L940.468 150.2L897.628 174.693L881.946 183.877V184.26V251.997L881.181 252.417V252.38L880.044 253.041L870.088 258.503ZM880.044 253.041L881.181 252.417V319.735H881.563L823.423 353.03V286.058L841.018 275.725L880.044 253.041ZM822.658 353.412L764.519 320.118V252.763L822.658 286.058V353.412ZM646.327 455.21L588.187 421.915V354.943L646.327 388.238V455.21ZM235.906 353.412V286.44L253.501 276.107L293.663 252.763V319.735L242.791 349.203L235.906 353.412ZM235.141 150.965V217.937L177.384 251.232V184.26L235.141 150.965ZM352.568 150.965V217.937L294.428 251.232V184.26L339.563 158.237L352.568 150.965ZM412.238 184.643L469.995 151.348V218.32L412.238 251.615V184.643ZM588.187 15.1078L646.327 48.4025L613.049 67.9201L588.569 82.0799L530.43 48.7852L588.187 15.1078ZM881.946 -86.6897L940.086 -53.395L881.946 -20.1003L823.806 -53.395L881.946 -86.6897ZM763.754 319.735L705.614 353.03V286.058L712.881 281.848L763.371 252.763V319.735H763.754ZM235.141 353.412L177.001 320.118V252.763L235.141 286.058V353.412ZM118.096 285.675L59.9566 252.38L117.714 219.086L175.854 252.38L118.096 285.675Z" fill="url(#paint0_linear_1604_12611)"/>
<defs>
<linearGradient id="paint0_linear_1604_12611" x1="0.0309824" y1="167.279" x2="583.963" y2="167.279" gradientUnits="userSpaceOnUse">
<stop stop-color="white"/>
<stop offset="1" stop-color="#8BC7FF"/>
</linearGradient>
</defs>
</svg>
