<svg width="199" height="201" viewBox="0 0 199 201" fill="none" xmlns="http://www.w3.org/2000/svg">
<path d="M176.008 173.621C174.602 173.621 173.184 173.306 172.093 172.675C170.905 171.984 170.25 171.027 170.25 169.972C170.25 168.917 170.905 167.96 172.093 167.281C174.287 166.008 177.73 166.008 179.924 167.281C181.112 167.96 181.766 168.917 181.766 169.972C181.766 171.027 181.112 171.984 179.924 172.663C178.833 173.294 177.414 173.621 176.008 173.621ZM175.996 167.826C174.844 167.826 173.693 168.069 172.832 168.566C172.141 168.966 171.741 169.475 171.741 169.96C171.741 170.445 172.141 170.966 172.844 171.366C174.566 172.36 177.463 172.36 179.184 171.366C179.875 170.966 180.275 170.457 180.275 169.972C180.275 169.487 179.875 168.978 179.184 168.578C178.312 168.081 177.16 167.826 175.996 167.826Z" fill="#0C6DC2"/>
<path d="M45.0241 188.641C44.6119 188.641 44.2725 188.301 44.2725 187.889V179.803C44.2725 179.391 44.6119 179.052 45.0241 179.052C45.4362 179.052 45.7757 179.391 45.7757 179.803V187.889C45.7635 188.313 45.4362 188.641 45.0241 188.641Z" fill="#0C6DC2"/>
<path d="M52.0183 184.604H38.0045C37.5924 184.604 37.2529 184.264 37.2529 183.852C37.2529 183.44 37.5924 183.101 38.0045 183.101H52.0183C52.4305 183.101 52.7699 183.44 52.7699 183.852C52.7699 184.264 52.4305 184.604 52.0183 184.604Z" fill="#0C6DC2"/>
<path d="M41.5073 10.159C41.2527 10.159 40.9981 10.0257 40.8648 9.78321C40.6587 9.41953 40.7799 8.97099 41.1436 8.76491L48.1505 4.72807C48.5142 4.52199 48.9627 4.64321 49.1688 5.00689C49.3749 5.37057 49.2537 5.81911 48.89 6.02519L41.8831 10.062C41.7619 10.1226 41.6285 10.159 41.5073 10.159Z" fill="#0C6DC2"/>
<path d="M48.5146 14.1964C48.26 14.1964 48.0054 14.063 47.8721 13.8206L40.8531 1.69795C40.647 1.33427 40.7682 0.87361 41.1319 0.667525C41.4956 0.46144 41.9441 0.582667 42.1502 0.946345L49.1571 13.0811C49.3632 13.4327 49.2419 13.8933 48.8783 14.0994C48.7691 14.1721 48.6479 14.1964 48.5146 14.1964Z" fill="#0C6DC2"/>
<path d="M135.434 87.925L149.242 79.9484C150.515 78.1057 151.521 75.8994 152.212 73.3658C149.181 70.82 146.866 65.5709 146.866 60.831C146.866 59.4005 147.096 58.2004 147.472 57.1942L152.212 54.4545C151.521 51.1329 150.515 47.7749 149.242 44.4533C146.611 44.8534 142.562 41.6287 139.665 36.5979C136.756 31.567 135.992 26.4633 137.653 24.3904C135.422 21.6264 133.01 19.0928 130.464 16.8258L125.736 19.5534C124.682 19.3837 123.506 18.9715 122.269 18.2563C118.16 15.8803 114.765 11.2616 114.074 7.35807C111.541 6.69133 109.128 6.44887 106.886 6.63071L95.3084 13.3224C95.3084 13.3224 95.3084 13.3224 95.2963 13.3103L81.4886 21.287C80.2157 23.1296 79.2095 25.3238 78.5186 27.8574C81.5492 30.4032 83.8646 35.6644 83.8646 40.4044C83.8646 41.8348 83.6343 43.035 83.2585 44.0411L78.5186 46.7809C79.2095 50.1146 80.2036 53.4604 81.4886 56.782C84.1192 56.382 88.156 59.6066 91.0655 64.6375C93.9749 69.6684 94.7386 74.772 93.0778 76.845C95.3084 79.6089 97.7208 82.1426 100.254 84.4095L104.97 81.6819C106.025 81.8516 107.201 82.2638 108.449 82.979C112.559 85.3551 115.953 89.9738 116.644 93.8773C119.19 94.544 121.59 94.7865 123.833 94.6046L135.41 87.9129C135.422 87.9251 135.434 87.925 135.434 87.925ZM125.554 68.2379C124.488 67.8621 123.397 67.3651 122.269 66.7105C112.656 61.1583 104.861 47.6779 104.861 36.5857C104.861 35.3007 104.97 34.1127 105.176 33.0096C106.243 33.3854 107.334 33.8824 108.461 34.537C118.075 40.0892 125.87 53.5695 125.87 64.6617C125.87 65.9467 125.748 67.1469 125.554 68.2379Z" fill="#B2E0FF"/>
<path d="M122.378 95.4048C120.499 95.4048 118.511 95.1381 116.462 94.5926C116.183 94.5199 115.965 94.2895 115.917 93.9986C115.25 90.2163 111.953 85.8522 108.085 83.6216C107.079 83.0397 106.085 82.6518 105.127 82.4578L100.642 85.0521C100.363 85.2097 100.012 85.1733 99.7693 84.9672C97.2114 82.6882 94.7626 80.106 92.5078 77.3057C92.2896 77.039 92.2896 76.639 92.5078 76.3723C93.7686 74.7842 93.4776 70.2625 90.4349 65.0013C87.3921 59.7279 83.6098 57.2064 81.6096 57.5095C81.258 57.558 80.9307 57.364 80.7974 57.0367C79.5124 53.6908 78.4941 50.2965 77.791 46.9264C77.7303 46.6112 77.8758 46.2839 78.1546 46.1263L82.6521 43.5321C82.9673 42.5986 83.1249 41.5561 83.1249 40.4166C83.1249 35.9554 80.9913 30.9246 78.0455 28.4515C77.8273 28.2697 77.7303 27.9666 77.8031 27.6757C78.5183 25.0693 79.5487 22.7903 80.8822 20.8749C80.9428 20.79 81.0277 20.7052 81.1247 20.6567L94.9323 12.6921C94.9687 12.6679 95.0172 12.6436 95.0657 12.6315L106.522 6.01255C106.619 5.95194 106.728 5.92769 106.837 5.91557C109.164 5.72161 111.662 5.97618 114.268 6.66717C114.547 6.73991 114.765 6.97024 114.813 7.26118C115.48 11.0434 118.778 15.4076 122.645 17.6382C123.651 18.22 124.645 18.608 125.603 18.8019L130.088 16.2077C130.367 16.0501 130.718 16.0865 130.961 16.2925C133.531 18.5837 135.98 21.1658 138.222 23.9419C138.44 24.2207 138.44 24.6087 138.222 24.8754C136.962 26.4634 137.252 30.9852 140.295 36.2464C143.338 41.5197 147.108 44.017 149.121 43.7382C149.472 43.6897 149.811 43.8836 149.933 44.2109C151.218 47.5689 152.236 50.9633 152.927 54.3212C152.988 54.6364 152.842 54.9637 152.563 55.1213L148.066 57.7156C147.751 58.649 147.593 59.6915 147.593 60.8432C147.593 65.3043 149.727 70.3352 152.672 72.8082C152.891 72.9901 152.988 73.2931 152.915 73.572C152.2 76.1783 151.169 78.4695 149.836 80.3727C149.775 80.4576 149.69 80.5425 149.593 80.591L135.81 88.5798C135.761 88.604 135.713 88.6283 135.664 88.6404L124.221 95.2472C124.124 95.3078 124.015 95.3321 123.905 95.3442C123.408 95.3927 122.899 95.4048 122.378 95.4048ZM117.299 93.2712C119.517 93.8167 121.639 94.0107 123.614 93.8774L135.046 87.2705C135.095 87.2463 135.143 87.222 135.192 87.2099L148.72 79.4029C149.836 77.7664 150.721 75.8389 151.363 73.6326C148.308 70.808 146.126 65.5347 146.126 60.8432C146.126 59.4127 146.344 58.1035 146.781 56.9518C146.841 56.7942 146.963 56.6488 147.108 56.5639L151.375 54.103C150.733 51.1693 149.848 48.1993 148.745 45.2656C145.775 45.2293 141.883 41.9561 139.022 37.0101C136.161 32.0641 135.276 27.0574 136.731 24.4753C134.743 22.0629 132.609 19.8081 130.379 17.7836L126.124 20.2324C125.978 20.3173 125.797 20.3536 125.627 20.3173C124.402 20.1233 123.154 19.6505 121.905 18.9353C117.844 16.5956 114.365 12.0617 113.444 8.00066C111.225 7.45514 109.092 7.24906 107.128 7.39453L95.684 13.9892C95.6476 14.0135 95.5991 14.0377 95.5506 14.0499L82.0096 21.8689C80.8943 23.5055 80.0094 25.433 79.3669 27.6272C82.4339 30.4518 84.616 35.7372 84.616 40.4166C84.616 41.847 84.3978 43.1563 83.9614 44.3079C83.9008 44.4655 83.7795 44.611 83.6341 44.6959L79.3669 47.1567C80.0094 50.1025 80.8943 53.0726 81.9975 55.9941C84.9675 56.0305 88.8589 59.3036 91.7199 64.2497C94.5808 69.1957 95.4657 74.2023 94.011 76.7845C95.9991 79.209 98.1327 81.4638 100.363 83.4761L104.618 81.0152C104.764 80.9304 104.946 80.894 105.115 80.9304C106.34 81.1244 107.588 81.5971 108.849 82.3124C112.898 84.6763 116.377 89.2101 117.299 93.2712ZM95.296 13.3346H95.3203H95.296ZM125.554 68.9896C125.469 68.9896 125.384 68.9775 125.3 68.9411C124.148 68.5289 123.008 68.0077 121.893 67.3652C112.086 61.7039 104.109 47.9084 104.121 36.5979C104.121 35.3129 104.23 34.0643 104.449 32.8884C104.485 32.6702 104.618 32.4884 104.812 32.3793C105.006 32.2702 105.224 32.2459 105.431 32.3187C106.582 32.7308 107.722 33.2521 108.837 33.8946C118.644 39.5559 126.621 53.3635 126.609 64.6618C126.609 65.9347 126.5 67.1833 126.281 68.3713C126.245 68.5896 126.112 68.7714 125.918 68.8805C125.809 68.9532 125.687 68.9896 125.554 68.9896ZM105.782 34.0522C105.673 34.8765 105.625 35.7251 105.625 36.5979C105.625 47.4235 113.262 60.6492 122.657 66.068C123.421 66.5045 124.184 66.8924 124.972 67.2076C125.081 66.3832 125.13 65.5225 125.13 64.6618C125.13 53.8363 117.493 40.6105 108.098 35.1917C107.334 34.7553 106.558 34.3674 105.782 34.0522Z" fill="#0C6DC2"/>
<path d="M138.404 62.4437C137.713 59.1221 136.707 55.7642 135.434 52.4426C132.803 52.8426 128.766 49.618 125.857 44.5871C122.948 39.5562 122.184 34.4526 123.845 32.3796C121.614 29.6157 119.202 27.082 116.668 24.8151C115.977 27.9185 112.583 28.6216 108.473 26.2456C104.364 23.8695 100.969 19.2508 100.278 15.3473C97.7446 14.6806 95.3322 14.4381 93.0895 14.62C94.7503 18.6204 93.9866 22.8391 91.0772 24.512C88.1678 26.185 84.1309 24.7424 81.5003 21.2995C80.2274 23.1422 79.2213 25.3364 78.5303 27.87C81.5609 30.4158 83.8763 35.677 83.8763 40.4169C83.8763 45.1569 81.5731 47.739 78.5303 46.7813C79.2213 50.115 80.2153 53.4609 81.5003 56.7825C84.1309 56.3824 88.1678 59.607 91.0772 64.6379C93.9866 69.6688 94.7503 74.7725 93.0895 76.8454C95.3201 79.6094 97.7325 82.143 100.266 84.4099C100.957 81.3065 104.351 80.6034 108.461 82.9795C112.571 85.3555 115.965 89.9742 116.656 93.8777C119.202 94.5445 121.602 94.7869 123.845 94.6051C122.184 90.6046 122.948 86.3859 125.857 84.713C128.766 83.0401 132.803 84.4827 135.434 87.9255C136.707 86.0829 137.713 83.8765 138.404 81.355C135.373 78.8093 133.058 73.5602 133.058 68.8202C133.058 64.0803 135.373 61.4982 138.404 62.4437ZM125.869 64.6622C125.869 75.7423 118.074 80.2398 108.461 74.6876C98.8478 69.1354 91.0529 55.6551 91.0529 44.5629C91.0529 33.4828 98.8478 28.9853 108.461 34.5375C118.074 40.0896 125.869 53.5821 125.869 64.6622Z" fill="white"/>
<path d="M122.378 95.4055C120.499 95.4055 118.511 95.1388 116.462 94.5933C116.183 94.5205 115.965 94.2902 115.916 93.9993C115.25 90.217 111.952 85.8529 108.085 83.6223C105.915 82.3615 103.879 81.9857 102.521 82.5798C101.721 82.9313 101.212 83.5981 100.993 84.5679C100.933 84.8224 100.751 85.0406 100.496 85.1134C100.242 85.1982 99.963 85.1376 99.769 84.9558C97.2112 82.6767 94.7624 80.0946 92.5076 77.2943C92.2894 77.0276 92.2894 76.6275 92.5076 76.3608C93.7683 74.7728 93.4774 70.251 90.4346 64.9898C87.3918 59.7165 83.6096 57.195 81.6093 57.498C81.2578 57.5465 80.9305 57.3526 80.7971 57.0253C79.5121 53.6794 78.4938 50.2851 77.7907 46.915C77.7422 46.6604 77.8271 46.3816 78.021 46.2119C78.215 46.03 78.4938 45.9694 78.7484 46.0543C79.694 46.3573 80.5304 46.2482 81.2457 45.727C82.4337 44.8541 83.1247 42.9145 83.1247 40.4051C83.1247 35.944 80.9911 30.9131 78.0453 28.4401C77.8271 28.2583 77.7301 27.9552 77.8028 27.6642C78.5181 25.0579 79.5485 22.7788 80.882 20.8635C81.0153 20.6695 81.2457 20.5483 81.476 20.5483C81.7427 20.5604 81.9367 20.6574 82.0821 20.8392C84.543 24.0517 88.1556 25.3125 90.7013 23.8577C93.2349 22.403 93.9502 18.6329 92.3985 14.8991C92.3015 14.6809 92.3257 14.4263 92.447 14.2203C92.5682 14.0142 92.7864 13.8808 93.0289 13.8687C95.3443 13.6747 97.8415 13.9293 100.46 14.6203C100.739 14.693 100.957 14.9234 101.006 15.2143C101.672 18.9966 104.97 23.3607 108.837 25.5913C111.019 26.852 113.043 27.2278 114.401 26.6338C115.201 26.2823 115.71 25.6155 115.929 24.6457C115.989 24.3911 116.171 24.1729 116.426 24.1002C116.68 24.0153 116.959 24.0759 117.153 24.2578C119.723 26.549 122.172 29.1311 124.414 31.9072C124.633 32.186 124.633 32.5739 124.414 32.8406C123.154 34.4287 123.445 38.9504 126.487 44.2116C129.53 49.485 133.3 52.0065 135.313 51.7034C135.664 51.6549 135.991 51.8489 136.125 52.1762C137.41 55.522 138.416 58.9164 139.131 62.2865C139.18 62.541 139.095 62.8199 138.901 62.9896C138.707 63.1714 138.428 63.2199 138.174 63.1472C137.228 62.8441 136.392 62.9653 135.676 63.4745C134.476 64.3473 133.797 66.2991 133.797 68.7963C133.797 73.2575 135.931 78.2883 138.877 80.7614C139.095 80.9432 139.192 81.2463 139.119 81.5251C138.404 84.1314 137.373 86.4105 136.04 88.3259C135.907 88.5198 135.688 88.6411 135.446 88.6532C135.216 88.6653 134.985 88.5562 134.84 88.3623C132.379 85.1498 128.766 83.8769 126.221 85.3437C123.687 86.7984 122.972 90.5686 124.523 94.2902C124.62 94.5084 124.596 94.763 124.475 94.9691C124.354 95.1752 124.136 95.3085 123.893 95.3206C123.408 95.3934 122.899 95.4055 122.378 95.4055ZM117.298 93.2719C119.214 93.7326 121.044 93.9508 122.79 93.9144C121.469 89.8048 122.523 85.7801 125.481 84.0708C128.439 82.3737 132.464 83.4768 135.361 86.6772C136.258 85.1982 136.998 83.5011 137.555 81.6099C134.5 78.7854 132.306 73.512 132.306 68.8206C132.306 65.7899 133.191 63.4624 134.803 62.2865C135.579 61.7167 136.488 61.4621 137.434 61.5106C136.804 58.7467 135.967 55.9706 134.937 53.2309C131.967 53.1945 128.075 49.9214 125.214 44.9754C122.353 40.0293 121.469 35.0227 122.923 32.4406C121.068 30.1736 119.08 28.0643 116.995 26.1368C116.571 26.9975 115.892 27.6279 115.007 28.0158C113.189 28.8159 110.728 28.428 108.097 26.9005C104.036 24.5609 100.557 20.027 99.6357 15.9659C97.7203 15.4931 95.8777 15.2749 94.1441 15.3234C95.4655 19.433 94.4108 23.4577 91.4529 25.167C88.495 26.8642 84.4703 25.761 81.573 22.5606C80.6759 24.0396 79.9364 25.7367 79.3788 27.6279C82.4458 30.4524 84.6279 35.7379 84.6279 40.4173C84.6279 43.4479 83.7429 45.7633 82.1427 46.9514C81.3669 47.5211 80.4698 47.7757 79.5121 47.7272C80.1425 50.4912 80.979 53.2672 82.0094 56.007C84.9794 56.0433 88.8708 59.3164 91.7317 64.2625C94.5927 69.2085 95.4776 74.2151 94.0229 76.7973C95.8898 79.0642 97.8779 81.1857 99.9509 83.101C100.375 82.2403 101.054 81.5978 101.939 81.222C103.77 80.4219 106.218 80.822 108.849 82.3373C112.898 84.677 116.377 89.2108 117.298 93.2719ZM116.244 77.8277C113.722 77.8277 110.946 76.9912 108.085 75.3425C98.2901 69.6813 90.3134 55.8736 90.3134 44.5753C90.3134 38.9383 92.253 34.7196 95.7807 32.683C99.3084 30.6464 103.951 31.0828 108.837 33.9074C118.644 39.5687 126.621 53.3763 126.609 64.6746C126.609 70.3117 124.669 74.5303 121.141 76.5669C119.687 77.4034 118.026 77.8277 116.244 77.8277ZM100.69 32.9012C99.1629 32.9012 97.7567 33.2528 96.5323 33.968C93.4774 35.7258 91.8045 39.4959 91.8045 44.5753C91.8045 55.4008 99.4417 68.6266 108.837 74.0454C113.249 76.5912 117.359 77.0276 120.402 75.2698C123.445 73.512 125.117 69.754 125.117 64.6746C125.117 53.8491 117.48 40.6233 108.085 35.2045C105.467 33.6771 102.945 32.9012 100.69 32.9012Z" fill="#0C6DC2"/>
<path d="M138.405 63.1955C138.15 63.1955 137.896 63.0622 137.762 62.8197C137.556 62.4682 137.677 62.0075 138.041 61.8014L151.849 53.8248C152.212 53.6187 152.661 53.7399 152.867 54.1036C153.073 54.4551 152.952 54.9158 152.588 55.1219L138.781 63.0986C138.659 63.1592 138.526 63.1955 138.405 63.1955Z" fill="#0C6DC2"/>
<path d="M135.434 53.1946C135.179 53.1946 134.925 53.0612 134.792 52.8188C134.585 52.4672 134.707 52.0065 135.07 51.8005L148.878 43.8238C149.242 43.6177 149.69 43.7389 149.896 44.1026C150.102 44.4542 149.981 44.9148 149.618 45.1209L135.81 53.0976C135.689 53.1703 135.567 53.1946 135.434 53.1946Z" fill="#0C6DC2"/>
<path d="M138.405 82.1067C138.15 82.1067 137.896 81.9733 137.762 81.7309C137.556 81.3793 137.677 80.9187 138.041 80.7126L151.849 72.7359C152.212 72.5298 152.661 72.651 152.867 73.0147C153.073 73.3663 152.952 73.8269 152.588 74.033L138.781 82.0097C138.659 82.0703 138.526 82.1067 138.405 82.1067Z" fill="#0C6DC2"/>
<path d="M123.845 33.1311C123.591 33.1311 123.336 32.9977 123.203 32.7553C122.997 32.4037 123.118 31.9431 123.482 31.737L137.289 23.7603C137.653 23.5542 138.101 23.6754 138.307 24.0391C138.514 24.3907 138.392 24.8513 138.029 25.0574L124.221 33.0341C124.1 33.1068 123.966 33.1311 123.845 33.1311Z" fill="#0C6DC2"/>
<path d="M116.656 25.5666C116.401 25.5666 116.147 25.4333 116.013 25.1908C115.807 24.8393 115.928 24.3786 116.292 24.1725L130.1 16.1958C130.463 15.9898 130.912 16.111 131.118 16.4747C131.324 16.8262 131.203 17.2869 130.839 17.493L117.032 25.4697C116.91 25.5424 116.789 25.5666 116.656 25.5666Z" fill="#0C6DC2"/>
<path d="M100.266 16.0989C100.012 16.0989 99.7569 15.9655 99.6236 15.7231C99.4175 15.3715 99.5387 14.9108 99.9024 14.7048L113.71 6.72807C114.074 6.52199 114.522 6.64321 114.728 7.00689C114.934 7.35845 114.813 7.81911 114.45 8.02519L100.642 16.0019C100.521 16.0746 100.399 16.0989 100.266 16.0989Z" fill="#0C6DC2"/>
<path d="M125.858 84.7136C128.767 83.0407 132.804 84.4833 135.434 87.9261L135.422 87.914L123.845 94.6057C122.184 90.6052 122.948 86.3866 125.858 84.7136Z" fill="#0C6DC2"/>
<path d="M123.845 95.3564C123.76 95.3564 123.687 95.3442 123.602 95.32C123.396 95.2473 123.239 95.1018 123.154 94.8957C121.311 90.4588 122.293 85.9128 125.481 84.0702C128.67 82.2276 133.106 83.6702 136.028 87.4767C136.028 87.4888 136.04 87.4888 136.04 87.5009C136.258 87.8403 136.186 88.301 135.858 88.5313C135.81 88.5677 135.749 88.6041 135.689 88.6283L124.208 95.2594C124.099 95.32 123.978 95.3564 123.845 95.3564ZM128.548 84.7612C127.724 84.7612 126.936 84.9551 126.221 85.3673C123.869 86.725 123.093 90.0588 124.233 93.5137L134.282 87.707C132.585 85.8159 130.476 84.7612 128.548 84.7612Z" fill="#0C6DC2"/>
<path d="M133.059 68.8191C133.059 64.0792 135.374 61.4971 138.405 62.4548L147.472 57.2178C147.097 58.224 146.866 59.4241 146.866 60.8546C146.866 65.5945 149.17 70.8436 152.212 73.3894L138.405 81.3661C135.374 78.8082 133.059 73.5591 133.059 68.8191Z" fill="#B2E0FF"/>
<path d="M138.404 82.1064C138.235 82.1064 138.065 82.0458 137.919 81.9367C134.671 79.2091 132.307 73.6933 132.307 68.8321C132.307 65.8015 133.192 63.4739 134.804 62.298C135.81 61.5586 137.022 61.3404 138.307 61.6555L147.108 56.5762C147.387 56.4186 147.727 56.4549 147.969 56.6489C148.212 56.855 148.296 57.1823 148.187 57.4854C147.811 58.4794 147.63 59.6068 147.63 60.8554C147.63 65.3166 149.763 70.3475 152.709 72.8205C152.891 72.9781 153 73.2205 152.976 73.463C152.951 73.7054 152.818 73.9236 152.6 74.0449L138.792 82.0216C138.659 82.0701 138.538 82.1064 138.404 82.1064ZM137.192 63.0012C136.647 63.0012 136.137 63.1709 135.689 63.4982C134.489 64.371 133.81 66.3228 133.81 68.82C133.81 73.0872 135.762 77.8635 138.501 80.4335L150.963 73.2327C148.115 70.3353 146.126 65.3166 146.126 60.8433C146.126 60.116 146.187 59.4129 146.296 58.7582L138.78 63.0981C138.598 63.2072 138.38 63.2315 138.186 63.1587C137.835 63.0496 137.507 63.0012 137.192 63.0012Z" fill="#0C6DC2"/>
<path d="M138.404 81.3546L152.211 73.3779C151.52 75.9116 150.526 78.1058 149.241 79.9605L135.434 87.9372C136.706 86.0824 137.713 83.8883 138.404 81.3546Z" fill="#0C6DC2"/>
<path d="M135.434 88.6769C135.228 88.6769 135.034 88.5921 134.888 88.4345C134.646 88.1799 134.622 87.792 134.828 87.501C136.052 85.7311 137.022 83.5854 137.689 81.1488C137.737 80.9548 137.871 80.7972 138.04 80.7002L151.848 72.7236C152.115 72.566 152.442 72.5902 152.672 72.7842C152.915 72.966 153.012 73.2812 152.939 73.5721C152.224 76.1785 151.193 78.4697 149.86 80.3729C149.799 80.4578 149.714 80.5427 149.617 80.5911L135.81 88.58C135.689 88.6406 135.567 88.6769 135.434 88.6769ZM139.047 81.8519C138.634 83.2945 138.113 84.6401 137.507 85.8766L148.72 79.4031C149.593 78.1181 150.333 76.6392 150.915 75.0026L139.047 81.8519Z" fill="#0C6DC2"/>
<path d="M125.325 59.4254L114.766 65.5231C113.154 66.4444 110.935 66.311 108.475 64.8927C103.553 62.056 99.5645 55.1582 99.5645 49.4727C99.5645 46.636 100.559 44.6479 102.171 43.7145L112.718 37.6289C118.9 42.9871 123.761 51.3881 125.325 59.4254Z" fill="#0C6DC2"/>
<path d="M112.45 66.857C111.093 66.857 109.614 66.4084 108.098 65.5356C102.983 62.5777 98.8125 55.3768 98.8125 49.4731C98.8125 46.4546 99.8672 44.1755 101.795 43.0602L112.341 36.9747C112.62 36.8171 112.972 36.8535 113.202 37.0595C119.53 42.5511 124.452 51.0612 126.052 59.2803C126.113 59.5955 125.967 59.9107 125.688 60.0683L115.13 66.166C115.105 66.1781 115.081 66.1902 115.045 66.2023C114.269 66.6388 113.396 66.857 112.45 66.857ZM112.62 38.5385L102.546 44.3574C101.104 45.1938 100.304 47.0001 100.304 49.4731C100.304 54.904 104.134 61.523 108.838 64.2385C110.971 65.475 112.947 65.6932 114.39 64.8689C114.414 64.8567 114.439 64.8446 114.463 64.8325L124.488 59.0379C122.876 51.4855 118.391 43.7149 112.62 38.5385Z" fill="#0C6DC2"/>
<path d="M108.461 44.3457C103.539 41.509 99.5508 43.8001 99.5508 49.4735C99.5508 55.1469 103.539 62.0447 108.461 64.8935C113.383 67.7302 117.371 65.439 117.371 59.7656C117.371 54.0922 113.383 47.1824 108.461 44.3457Z" fill="white"/>
<path d="M112.449 66.857C111.092 66.857 109.613 66.4085 108.097 65.5356C102.982 62.5777 98.8115 55.3769 98.8115 49.4731C98.8115 46.4546 99.8662 44.1756 101.794 43.0724C103.721 41.9692 106.218 42.1874 108.849 43.7028C113.965 46.6607 118.135 53.8615 118.135 59.7653C118.135 62.7838 117.08 65.0628 115.153 66.166C114.328 66.6267 113.419 66.857 112.449 66.857ZM104.485 43.8725C103.77 43.8725 103.103 44.0422 102.533 44.3695C101.091 45.206 100.303 47.0122 100.303 49.4731C100.303 54.9041 104.133 61.523 108.837 64.2385C110.983 65.475 112.947 65.6932 114.389 64.8689C115.832 64.0445 116.62 62.2261 116.62 59.7653C116.62 54.3343 112.789 47.7154 108.085 44.9878C106.8 44.2483 105.576 43.8725 104.485 43.8725Z" fill="#0C6DC2"/>
<path d="M181.719 110.002L170.675 116.378C168.626 116.233 166.469 115.663 164.274 114.669C163.802 111.275 161.316 106.935 157.825 103.831C154.334 100.74 150.939 99.8551 149.17 101.261C148.285 100.001 147.424 98.7034 146.624 97.3215C145.824 95.9395 145.133 94.5454 144.478 93.1513C146.587 92.327 147.521 88.9447 146.587 84.3866C145.654 79.8164 143.132 75.5007 140.417 73.3914C140.647 71.0032 141.229 68.8454 142.138 67.0028L155.946 59.0382C155.946 59.0382 155.958 59.0382 155.958 59.0503L167.002 52.6738C169.051 52.8072 171.208 53.3891 173.403 54.3831C173.875 57.7775 176.361 62.1174 179.852 65.2207C183.343 68.312 186.738 69.197 188.507 67.7907C189.392 69.0515 190.253 70.3486 191.053 71.7306C191.853 73.1126 192.544 74.5067 193.199 75.9008C191.09 76.7251 190.156 80.1073 191.09 84.6654C192.023 89.2236 194.545 93.5392 197.26 95.6607C197.03 98.0488 196.448 100.207 195.539 102.049L181.719 110.002C181.719 110.014 181.719 110.014 181.719 110.002Z" fill="#B2E0FF"/>
<path d="M170.663 117.13C170.651 117.13 170.626 117.13 170.614 117.13C168.481 116.984 166.238 116.39 163.959 115.36C163.729 115.251 163.559 115.033 163.523 114.778C163.062 111.444 160.565 107.274 157.316 104.401C154.285 101.71 151.121 100.679 149.618 101.855C149.46 101.989 149.254 102.037 149.048 102.013C148.842 101.989 148.66 101.867 148.539 101.698C147.533 100.267 146.684 98.958 145.969 97.6973C145.242 96.4365 144.539 95.0545 143.799 93.4665C143.714 93.2846 143.702 93.0664 143.787 92.8725C143.86 92.6785 144.017 92.533 144.211 92.4482C145.993 91.7451 146.672 88.4841 145.86 84.52C144.987 80.277 142.623 76.0341 139.968 73.9612C139.762 73.8036 139.653 73.549 139.69 73.2944C139.932 70.8093 140.538 68.5787 141.484 66.6512C141.544 66.5179 141.653 66.4088 141.787 66.336L155.57 58.3957C155.607 58.3715 155.655 58.3472 155.704 58.3351L166.626 52.0192C166.759 51.9465 166.905 51.9101 167.05 51.9222C169.184 52.0677 171.427 52.6617 173.706 53.6921C173.936 53.8012 174.106 54.0194 174.142 54.274C174.603 57.6077 177.1 61.7779 180.349 64.651C183.379 67.3422 186.543 68.3847 188.047 67.1967C188.204 67.0634 188.41 67.0149 188.616 67.0391C188.823 67.0634 189.004 67.1846 189.126 67.3543C190.132 68.7848 190.968 70.0819 191.708 71.3548C192.435 72.6277 193.138 73.9612 193.878 75.5856C193.963 75.7674 193.975 75.9856 193.89 76.1796C193.817 76.3736 193.659 76.519 193.466 76.5918C191.683 77.2949 191.005 80.5437 191.817 84.52C192.69 88.7629 195.054 93.0058 197.708 95.0788C197.915 95.2364 198.024 95.4909 197.987 95.7455C197.745 98.2307 197.139 100.461 196.193 102.389C196.132 102.522 196.023 102.631 195.89 102.704L182.082 110.681C182.034 110.705 181.998 110.729 181.949 110.741L171.027 117.045C170.93 117.093 170.796 117.13 170.663 117.13ZM164.941 114.148C166.844 114.972 168.711 115.469 170.493 115.615L181.343 109.347C181.391 109.323 181.428 109.299 181.476 109.286L194.957 101.504C195.72 99.8915 196.229 98.0246 196.46 95.9758C193.635 93.5998 191.259 89.272 190.35 84.8109C189.453 80.4468 190.192 76.9433 192.205 75.5613C191.587 74.2642 191.005 73.1489 190.386 72.0943C189.78 71.0396 189.089 69.9486 188.277 68.7848C186.071 69.8395 182.676 68.7242 179.331 65.7663C175.912 62.7477 173.354 58.5169 172.712 54.8923C170.796 54.0679 168.941 53.5709 167.159 53.4254L156.31 59.6928C156.273 59.7171 156.225 59.7413 156.176 59.7534L142.72 67.5483C141.956 69.1606 141.447 71.0275 141.217 73.0762C144.029 75.4522 146.418 79.78 147.327 84.2411C148.224 88.6053 147.484 92.1087 145.472 93.4786C146.078 94.7636 146.684 95.9031 147.29 96.9457C147.897 98.0003 148.588 99.0792 149.388 100.255C151.594 99.2005 154.988 100.316 158.334 103.274C161.728 106.304 164.286 110.523 164.941 114.148Z" fill="#0C6DC2"/>
<path d="M177.246 79.6935C176.445 78.3115 175.585 77.0144 174.7 75.7536C172.93 77.1599 169.523 76.2749 166.044 73.1836C162.553 70.0924 160.068 65.7525 159.595 62.346C157.401 61.352 155.243 60.7822 153.194 60.6367C154.14 64.1644 153.243 67.5951 150.697 69.0619C148.151 70.5288 144.721 69.5832 142.138 67.0011C141.229 68.8437 140.647 71.0016 140.417 73.3897C143.12 75.4991 145.642 79.8147 146.587 84.385C147.521 88.9431 146.587 92.3253 144.478 93.1496C145.121 94.5437 145.824 95.9378 146.624 97.3198C147.424 98.7018 148.285 99.9989 149.17 101.26C150.939 99.8534 154.334 100.738 157.825 103.83C161.316 106.921 163.802 111.261 164.274 114.667C166.469 115.661 168.626 116.243 170.675 116.377C169.73 112.849 170.627 109.418 173.172 107.951C175.73 106.472 179.149 107.43 181.731 110C182.64 108.157 183.21 106 183.452 103.611C180.737 101.502 178.215 97.1864 177.282 92.6162C176.348 88.0581 177.282 84.6638 179.391 83.8516C178.737 82.4696 178.034 81.0755 177.246 79.6935ZM168.493 84.7365C172.118 91.0039 172.118 97.7804 168.493 99.8655C164.868 101.951 159.001 98.5684 155.376 92.2889C151.752 86.0215 151.752 79.245 155.376 77.1599C159.001 75.0748 164.868 78.4691 168.493 84.7365Z" fill="white"/>
<path d="M170.663 117.129C170.651 117.129 170.626 117.129 170.614 117.129C168.481 116.984 166.238 116.39 163.959 115.359C163.729 115.25 163.559 115.032 163.523 114.777C163.062 111.444 160.565 107.273 157.316 104.4C154.285 101.709 151.121 100.679 149.618 101.855C149.46 101.988 149.254 102.036 149.048 102.012C148.842 101.988 148.66 101.867 148.539 101.697C147.533 100.266 146.684 98.9572 145.969 97.6965C145.242 96.4357 144.539 95.0537 143.799 93.4657C143.714 93.2838 143.702 93.0656 143.787 92.8717C143.86 92.6777 144.017 92.5322 144.211 92.4474C145.993 91.7443 146.672 88.4833 145.86 84.5192C144.987 80.2763 142.623 76.0333 139.968 73.9604C139.762 73.8028 139.653 73.5482 139.69 73.2936C139.932 70.8085 140.538 68.5779 141.484 66.6504C141.593 66.4322 141.799 66.2867 142.029 66.2383C142.272 66.1898 142.514 66.2746 142.684 66.4443C145.096 68.8567 148.175 69.6326 150.333 68.384C152.503 67.1353 153.364 64.0925 152.491 60.7952C152.43 60.5649 152.479 60.3103 152.637 60.1284C152.794 59.9466 153.012 59.8375 153.267 59.8618C155.4 60.0072 157.643 60.6012 159.922 61.6317C160.153 61.7408 160.322 61.959 160.359 62.2135C160.819 65.5473 163.317 69.7174 166.565 72.5905C169.596 75.2817 172.76 76.3243 174.263 75.1363C174.421 75.0029 174.627 74.9544 174.833 74.9787C175.039 75.0029 175.221 75.1241 175.342 75.2939C176.348 76.7243 177.185 78.0336 177.912 79.2943C178.64 80.5551 179.355 81.9371 180.082 83.5251C180.167 83.707 180.179 83.9252 180.094 84.1191C180.022 84.3131 179.864 84.4586 179.67 84.5313C177.888 85.2344 177.209 88.4833 178.021 92.4595C178.894 96.7024 181.258 100.945 183.913 103.018C184.119 103.176 184.228 103.43 184.192 103.685C183.949 106.17 183.343 108.401 182.398 110.328C182.288 110.546 182.082 110.692 181.852 110.74C181.61 110.789 181.367 110.704 181.197 110.534C178.785 108.122 175.706 107.346 173.536 108.595C171.366 109.843 170.505 112.886 171.378 116.171C171.439 116.402 171.39 116.656 171.233 116.838C171.099 117.032 170.893 117.129 170.663 117.129ZM164.941 114.147C166.578 114.85 168.178 115.311 169.717 115.529C169.111 111.977 170.275 108.752 172.796 107.31C175.318 105.855 178.688 106.461 181.464 108.764C182.046 107.322 182.446 105.71 182.652 103.952C179.828 101.576 177.452 97.2479 176.542 92.7868C175.645 88.4227 176.385 84.9192 178.397 83.5494C177.791 82.2644 177.185 81.1248 176.579 80.0823C175.973 79.0276 175.282 77.9487 174.481 76.7728C172.275 77.8275 168.881 76.7122 165.547 73.7543C162.129 70.7358 159.571 66.505 158.928 62.8803C157.292 62.1772 155.691 61.7165 154.152 61.4983C154.77 65.0502 153.594 68.2749 151.073 69.7175C148.563 71.16 145.181 70.566 142.405 68.2627C141.811 69.7053 141.411 71.3176 141.217 73.0754C144.029 75.4514 146.418 79.7792 147.327 84.2404C148.224 88.6045 147.484 92.1079 145.472 93.4778C146.078 94.7628 146.684 95.9023 147.29 96.9449C147.897 97.9995 148.588 99.0785 149.388 100.254C151.594 99.1997 154.988 100.315 158.334 103.273C161.728 106.304 164.286 110.522 164.941 114.147ZM166.056 101.236C162.31 101.236 157.789 97.9753 154.722 92.6656C152.249 88.3863 151.327 83.7918 152.249 80.3732C152.721 78.6155 153.667 77.282 155 76.5182C159.037 74.1907 165.256 77.6335 169.135 84.3616C171.608 88.6288 172.53 93.2232 171.608 96.6539C171.136 98.4117 170.19 99.7452 168.857 100.509C168.008 101.006 167.062 101.236 166.056 101.236ZM157.764 77.3062C157.025 77.3062 156.346 77.4759 155.752 77.8154C154.77 78.373 154.067 79.3913 153.703 80.7612C152.891 83.7676 153.788 88.0469 156.031 91.9261C159.389 97.7328 164.929 101.067 168.129 99.2239C169.111 98.6663 169.814 97.6359 170.178 96.2781C170.978 93.2717 170.093 88.9924 167.85 85.1132C165.123 80.3975 160.953 77.3062 157.764 77.3062Z" fill="#0C6DC2"/>
<path d="M183.44 104.375C183.185 104.375 182.931 104.242 182.797 103.999C182.591 103.648 182.713 103.187 183.076 102.981L196.884 95.0044C197.248 94.7984 197.696 94.9196 197.902 95.2833C198.108 95.6348 197.987 96.0955 197.623 96.3016L183.816 104.278C183.707 104.339 183.573 104.375 183.44 104.375Z" fill="#0C6DC2"/>
<path d="M173.172 107.965C175.718 106.486 179.136 107.444 181.718 110.014L170.675 116.39C169.729 112.862 170.614 109.432 173.172 107.965Z" fill="#0C6DC2"/>
<path d="M170.663 117.13C170.566 117.13 170.469 117.105 170.372 117.069C170.154 116.984 169.996 116.802 169.935 116.572C168.881 112.62 170.02 108.898 172.784 107.31C175.536 105.722 179.33 106.595 182.228 109.468C182.397 109.638 182.47 109.868 182.446 110.098C182.422 110.329 182.276 110.535 182.082 110.644L171.039 117.02C170.929 117.093 170.796 117.13 170.663 117.13ZM175.827 108.013C175.003 108.013 174.227 108.207 173.536 108.607C171.584 109.723 170.687 112.317 171.172 115.226L180.446 109.868C178.979 108.656 177.33 108.013 175.827 108.013ZM173.172 107.965H173.196H173.172Z" fill="#0C6DC2"/>
<path d="M183.44 103.626L197.248 95.6494C197.018 98.0376 196.436 100.195 195.526 102.038L181.719 110.015C182.628 108.172 183.21 106.014 183.44 103.626Z" fill="#0C6DC2"/>
<path d="M181.731 110.766C181.549 110.766 181.368 110.693 181.222 110.56C180.98 110.341 180.919 109.978 181.064 109.687C181.925 107.929 182.483 105.868 182.713 103.553C182.737 103.31 182.871 103.104 183.089 102.983L196.897 95.0062C197.139 94.8608 197.442 94.8729 197.672 95.0305C197.903 95.1881 198.036 95.4548 198.012 95.7336C197.769 98.2187 197.163 100.449 196.218 102.377C196.157 102.51 196.048 102.619 195.915 102.692L182.107 110.669C181.986 110.729 181.852 110.766 181.731 110.766ZM184.144 104.086C183.974 105.577 183.671 106.983 183.234 108.281L194.957 101.516C195.587 100.183 196.036 98.6915 196.315 97.0671L184.144 104.086Z" fill="#0C6DC2"/>
<path d="M179.391 84.6164C179.137 84.6164 178.882 84.4831 178.749 84.2406C178.542 83.8891 178.664 83.4284 179.027 83.2223L192.835 75.2457C193.199 75.0396 193.647 75.1608 193.853 75.5245C194.059 75.876 193.938 76.3367 193.575 76.5428L179.767 84.5195C179.646 84.5801 179.512 84.6164 179.391 84.6164Z" fill="#0C6DC2"/>
<path d="M174.7 76.5061C174.445 76.5061 174.191 76.3727 174.057 76.1303C173.851 75.7787 173.972 75.3181 174.336 75.112L188.144 67.1353C188.507 66.9292 188.956 67.0504 189.162 67.4141C189.368 67.7657 189.247 68.2263 188.883 68.4324L175.075 76.4091C174.954 76.4697 174.833 76.5061 174.7 76.5061Z" fill="#0C6DC2"/>
<path d="M159.595 63.0979C159.341 63.0979 159.086 62.9645 158.953 62.7221C158.747 62.3705 158.868 61.9099 159.231 61.7038L173.039 53.7271C173.403 53.521 173.851 53.6422 174.057 54.0059C174.264 54.3575 174.142 54.8181 173.779 55.0242L159.971 63.0009C159.85 63.0736 159.729 63.0979 159.595 63.0979Z" fill="#0C6DC2"/>
<path d="M164.129 92.3134C162.916 93.0044 160.953 91.877 159.74 89.7798C158.528 87.6825 158.528 85.4035 159.74 84.7125L165.911 81.1484C166.844 82.2031 167.729 83.3911 168.493 84.7367C169.269 86.0702 169.863 87.428 170.299 88.7614L164.129 92.3134Z" fill="#0C6DC2"/>
<path d="M163.328 93.2714C161.886 93.2714 160.201 92.0955 159.086 90.1559C158.188 88.6042 157.861 86.9191 158.213 85.6462C158.407 84.931 158.807 84.3734 159.364 84.0582L165.535 80.4941C165.838 80.3244 166.226 80.385 166.468 80.6396C167.487 81.7791 168.384 83.0278 169.147 84.3491C169.911 85.6705 170.541 87.0646 171.026 88.5072C171.135 88.8466 171.002 89.2103 170.687 89.3921L164.516 92.9562C164.141 93.1744 163.753 93.2714 163.328 93.2714ZM164.129 92.3137H164.153H164.129ZM165.741 82.1064L160.104 85.3553C159.886 85.4765 159.74 85.7069 159.643 86.0342C159.413 86.907 159.692 88.2284 160.371 89.4043C161.413 91.2105 163.013 92.0834 163.741 91.6712L169.378 88.4223C168.965 87.2828 168.444 86.1675 167.826 85.1129C167.232 84.0461 166.529 83.0399 165.741 82.1064Z" fill="#0C6DC2"/>
<path d="M159.74 84.7137C158.528 85.4047 158.528 87.6837 159.74 89.781C160.953 91.8782 162.928 93.0177 164.141 92.3146C165.353 91.6115 165.365 89.3445 164.141 87.2473C162.916 85.1501 160.953 84.0106 159.74 84.7137Z" fill="white"/>
<path d="M163.328 93.2715C161.886 93.2715 160.201 92.0956 159.086 90.156C158.188 88.6043 157.861 86.9192 158.213 85.6463C158.407 84.9311 158.807 84.3735 159.364 84.0583C160.189 83.5855 161.243 83.6582 162.31 84.2765C163.256 84.822 164.129 85.7433 164.783 86.8707C165.68 88.4103 166.008 90.0954 165.668 91.3682C165.474 92.0835 165.074 92.6411 164.516 92.9684C164.141 93.1745 163.753 93.2715 163.328 93.2715ZM160.54 85.2463C160.371 85.2463 160.225 85.2827 160.104 85.3554C159.886 85.4766 159.74 85.707 159.655 86.0343C159.425 86.9071 159.704 88.2285 160.383 89.4044C161.425 91.2106 163.025 92.0956 163.765 91.6713C163.983 91.5501 164.129 91.3197 164.226 90.9803C164.468 90.0954 164.177 88.8104 163.498 87.6223C162.989 86.7253 162.286 85.9858 161.571 85.5736C161.183 85.3554 160.843 85.2463 160.54 85.2463ZM159.74 84.7129H159.764H159.74Z" fill="#0C6DC2"/>
<path d="M34.9487 60.6501L25.1778 55.001L15.4434 60.6259V89.6959L25.2021 95.333L34.9487 89.7081V60.6501Z" fill="#B2E0FF"/>
<path d="M25.2027 96.0839C25.0694 96.0839 24.9481 96.0475 24.8269 95.9869L15.0682 90.3499C14.8379 90.2166 14.6924 89.9741 14.6924 89.7074V60.6252C14.6924 60.3585 14.8379 60.1161 15.0682 59.9827L24.8148 54.3578C25.0451 54.2245 25.3361 54.2245 25.5664 54.3578L35.3372 59.9948C35.5676 60.1282 35.713 60.3706 35.713 60.6373V89.7074C35.713 89.9741 35.5676 90.2166 35.3372 90.3499L25.5906 95.9748C25.4573 96.0475 25.3361 96.0839 25.2027 96.0839ZM16.1835 89.271L25.2027 94.4716L34.1977 89.2831V61.0738L25.1785 55.861L16.1835 61.0616V89.271Z" fill="#0C6DC2"/>
<path d="M34.9496 60.6501L25.1788 55.001L15.4443 60.6259L25.2031 66.275L34.9496 60.6501Z" fill="white"/>
<path d="M25.2027 67.0144C25.0694 67.0144 24.9481 66.9781 24.8269 66.9174L15.0682 61.2804C14.8379 61.1471 14.6924 60.9046 14.6924 60.6379C14.6924 60.3712 14.8379 60.1288 15.0682 59.9954L24.8148 54.3705C25.0451 54.2372 25.3361 54.2372 25.5664 54.3705L35.3372 60.0075C35.5676 60.1409 35.713 60.3833 35.713 60.65C35.713 60.9167 35.5676 61.1592 35.3372 61.2925L25.5906 66.9174C25.4573 66.9902 25.3361 67.0144 25.2027 67.0144ZM16.9351 60.6258L25.2027 65.4021L33.4461 60.6379L25.1785 55.8616L16.9351 60.6258Z" fill="#0C6DC2"/>
<path d="M25.2031 66.2753V95.3332L34.9497 89.7083V60.6504L25.2031 66.2753Z" fill="#0C6DC2"/>
<path d="M25.2028 96.0852C25.0694 96.0852 24.9482 96.0488 24.827 95.9882C24.5966 95.8548 24.4512 95.6124 24.4512 95.3457V66.2756C24.4512 66.0089 24.5966 65.7665 24.827 65.6331L34.5736 60.0082C34.8039 59.8749 35.0948 59.8749 35.3252 60.0082C35.5555 60.1416 35.701 60.384 35.701 60.6507V89.7208C35.701 89.9875 35.5555 90.2299 35.3252 90.3633L25.5786 95.9882C25.4574 96.0488 25.3361 96.0852 25.2028 96.0852ZM25.9544 66.6999V94.0364L34.1978 89.2722V61.9357L25.9544 66.6999Z" fill="#0C6DC2"/>
<path d="M58.7218 49.3037L53.0605 52.5768V103.468C53.0605 107.965 56.2246 113.445 60.128 115.699L142.416 163.208C144.368 164.335 146.138 164.444 147.423 163.717L153.121 160.42V160.408C154.381 159.656 155.157 158.104 155.157 155.874V104.971L58.7218 49.3037Z" fill="#0C6DC2"/>
<path d="M145.593 164.917C144.49 164.917 143.289 164.553 142.053 163.85L59.7646 116.342C55.6671 113.978 52.3213 108.195 52.3213 103.467V52.5644C52.3213 52.2977 52.4668 52.0553 52.6971 51.9219L58.3584 48.6488C58.5887 48.5155 58.8796 48.5155 59.11 48.6488L155.533 104.328C155.764 104.461 155.909 104.704 155.909 104.971V155.873C155.909 158.225 155.097 160.044 153.618 160.977C153.582 161.013 153.545 161.038 153.509 161.062L147.811 164.359C147.132 164.735 146.393 164.917 145.593 164.917ZM53.8124 53.0009V103.467C53.8124 107.722 56.8188 112.923 60.5162 115.057L142.805 162.565C144.453 163.523 145.969 163.705 147.06 163.074L152.66 159.838C152.685 159.813 152.721 159.789 152.745 159.777C153.824 159.134 154.418 157.752 154.418 155.886V105.407L58.722 50.1642L53.8124 53.0009Z" fill="#0C6DC2"/>
<path d="M53.0605 52.5645V103.455C53.0605 107.953 56.2246 113.432 60.128 115.687L142.416 163.196C146.32 165.45 149.484 163.632 149.484 159.134V108.244L53.0605 52.5645Z" fill="white"/>
<path d="M145.593 164.916C144.49 164.916 143.289 164.553 142.053 163.837L59.7646 116.341C55.6671 113.977 52.3213 108.195 52.3213 103.467V52.5638C52.3213 52.2971 52.4668 52.0546 52.6971 51.9213C52.9274 51.788 53.2184 51.788 53.4487 51.9213L149.872 107.588C150.102 107.722 150.248 107.964 150.248 108.231V159.134C150.248 161.583 149.387 163.437 147.811 164.347C147.132 164.722 146.393 164.916 145.593 164.916ZM53.8124 53.8609V103.467C53.8124 107.722 56.8188 112.922 60.5162 115.056L142.805 162.565C144.453 163.522 145.969 163.692 147.06 163.062C148.151 162.431 148.757 161.037 148.757 159.146V108.667L53.8124 53.8609Z" fill="#0C6DC2"/>
<path d="M148.079 76.9064L65.7903 29.3978C63.8385 28.2704 62.0808 28.1613 60.7958 28.9008L55.1102 32.186C53.8495 32.9255 53.0615 34.5014 53.0615 36.732V52.5763L149.485 108.243L155.146 104.982V89.1381C155.158 84.6285 151.982 79.1612 148.079 76.9064Z" fill="#B2E0FF"/>
<path d="M149.497 108.982C149.363 108.982 149.242 108.946 149.121 108.885L52.6854 53.2183C52.455 53.0849 52.3096 52.8425 52.3096 52.5758V36.7315C52.3096 34.2948 53.1703 32.4522 54.722 31.5309L60.4075 28.2456C61.9834 27.3486 64.0321 27.5304 66.1415 28.7548L148.43 76.2634C152.539 78.6273 155.885 84.4098 155.873 89.1376V104.982C155.873 105.249 155.728 105.491 155.497 105.624L149.836 108.885C149.751 108.958 149.618 108.982 149.497 108.982ZM53.8128 52.1393L149.497 107.37L154.406 104.533V89.1376C154.406 84.8826 151.4 79.682 147.703 77.5484L65.4141 30.0398C63.7776 29.0942 62.2622 28.9124 61.1712 29.5428L55.4857 32.828C54.4068 33.4584 53.8128 34.8525 53.8128 36.7315V52.1393ZM155.146 104.97H155.17H155.146Z" fill="#0C6DC2"/>
<path d="M149.496 108.244L155.157 104.983V89.1386C155.157 86.908 154.381 84.4471 153.121 82.2529L128.803 96.2909L149.496 108.244Z" fill="#0C6DC2"/>
<path d="M149.497 108.983C149.363 108.983 149.242 108.947 149.121 108.886L128.428 96.9454C128.197 96.812 128.052 96.5696 128.052 96.3029C128.052 96.0362 128.197 95.7937 128.428 95.6604L152.746 81.6224C152.915 81.5254 153.121 81.5011 153.315 81.5496C153.509 81.5981 153.667 81.7315 153.764 81.9012C155.134 84.3015 155.897 86.8836 155.897 89.1505V104.995C155.897 105.262 155.752 105.504 155.522 105.637L149.86 108.898C149.751 108.959 149.618 108.983 149.497 108.983ZM130.294 96.2907L149.497 107.371L154.406 104.534V89.1384C154.406 87.32 153.849 85.2713 152.83 83.2832L130.294 96.2907Z" fill="#0C6DC2"/>
<path d="M149.497 92.3988C149.497 87.9013 146.333 82.4218 142.417 80.167L60.1407 32.6585C56.2372 30.4037 53.0732 32.222 53.0732 36.7195V52.5638L149.497 108.231V92.3988Z" fill="#B2E0FF"/>
<path d="M149.497 108.982C149.363 108.982 149.242 108.946 149.121 108.886L52.6854 53.2184C52.455 53.0851 52.3096 52.8426 52.3096 52.5759V36.7316C52.3096 34.2829 53.1703 32.4281 54.7462 31.5189C56.3222 30.6097 58.3588 30.7794 60.4923 32.0159L142.781 79.5245C146.89 81.8884 150.224 87.6709 150.224 92.3987V108.243C150.224 108.51 150.079 108.752 149.848 108.886C149.751 108.958 149.618 108.982 149.497 108.982ZM53.8128 52.1395L148.745 106.946V92.3987C148.745 88.1437 145.739 82.9431 142.041 80.8216L59.765 33.3131C58.1163 32.3554 56.601 32.1856 55.5099 32.816C54.4189 33.4464 53.8128 34.8405 53.8128 36.7316V52.1395Z" fill="#0C6DC2"/>
<path d="M106.231 71.2694C106.231 74.7608 103.782 76.1791 100.739 74.4213L81.6947 63.4261C78.664 61.6804 76.2031 57.4254 76.2031 53.9341C76.2031 50.4428 78.6519 49.0244 81.6947 50.7822L100.739 61.7774C103.77 63.5231 106.231 67.766 106.231 71.2694Z" fill="white"/>
<path d="M103.2 75.9238C102.315 75.9238 101.358 75.6329 100.364 75.0631L81.3191 64.0679C78.0339 62.1768 75.4639 57.7156 75.4639 53.9334C75.4639 51.9695 76.167 50.4784 77.4399 49.7511C78.7127 49.0116 80.3614 49.1449 82.0707 50.139L101.115 61.1342C104.401 63.0375 106.971 67.4865 106.971 71.2809C106.971 73.2447 106.267 74.7358 104.995 75.4632C104.461 75.7662 103.855 75.9238 103.2 75.9238ZM79.2461 50.7694C78.8461 50.7694 78.4945 50.8542 78.1793 51.0361C77.3914 51.4967 76.9549 52.5272 76.9549 53.9334C76.9549 57.1822 79.2461 61.1463 82.0707 62.7708L101.115 73.766C102.34 74.4812 103.455 74.6146 104.255 74.1539C105.043 73.6933 105.479 72.6628 105.479 71.2566C105.479 68.0078 103.188 64.0437 100.364 62.4071L81.3191 51.4119C80.5796 50.9997 79.8644 50.7694 79.2461 50.7694Z" fill="#0C6DC2"/>
<path d="M101.176 71.1721C100.752 71.1721 100.303 71.0388 99.8667 70.7842C98.4969 69.9841 97.418 68.1172 97.418 66.5413C97.418 65.6442 97.7695 64.9168 98.3999 64.5531C99.0303 64.1895 99.8304 64.2501 100.618 64.6986C102 65.4866 103.079 67.3535 103.079 68.9415C103.079 69.8386 102.716 70.566 102.097 70.9297C101.818 71.0872 101.503 71.1721 101.176 71.1721ZM99.3212 65.8018C99.2485 65.8018 99.2 65.8139 99.1515 65.8381C99.006 65.923 98.9212 66.1897 98.9212 66.5291C98.9212 67.5959 99.697 68.9537 100.63 69.4871C100.934 69.6568 101.212 69.7174 101.358 69.6325C101.503 69.5477 101.588 69.281 101.588 68.9415C101.588 67.8869 100.788 66.517 99.8789 65.9836C99.6607 65.8745 99.4667 65.8018 99.3212 65.8018Z" fill="#0C6DC2"/>
<path d="M97.1991 70.2384C96.9445 70.2384 96.6899 70.105 96.5445 69.8626C96.3384 69.4989 96.4596 69.0504 96.8233 68.8443L98.4114 67.9351C98.775 67.729 99.2236 67.8502 99.4297 68.2139C99.6358 68.5776 99.5145 69.0261 99.1508 69.2322L97.5628 70.1414C97.4416 70.2142 97.3203 70.2384 97.1991 70.2384Z" fill="#0C6DC2"/>
<path d="M64.4683 52.1277C64.2137 52.1277 63.9592 51.9944 63.8258 51.7519L60.1526 45.3997C60.0557 45.2299 60.0314 45.0239 60.0799 44.8299C60.1284 44.6359 60.2618 44.4783 60.4315 44.3814L64.1046 42.272C64.4683 42.0659 64.9168 42.1872 65.1229 42.5508C65.329 42.9145 65.2078 43.3631 64.8441 43.5691L61.8134 45.3027L65.1108 51.0003C65.3169 51.3519 65.1957 51.8125 64.832 52.0186C64.7229 52.0913 64.5895 52.1277 64.4683 52.1277Z" fill="#0C6DC2"/>
<path d="M67.9954 49.9339C67.8742 49.9339 67.7408 49.8975 67.6196 49.8369L60.4066 45.6788C60.0551 45.4728 59.9217 45.0121 60.1278 44.6605C60.3339 44.309 60.7946 44.1756 61.1461 44.3817L68.3591 48.5398C68.7106 48.7459 68.844 49.2065 68.6379 49.5581C68.5046 49.8005 68.25 49.9339 67.9954 49.9339Z" fill="#0C6DC2"/>
<path d="M122.026 81.1253C121.905 81.1253 121.772 81.0889 121.65 81.0283L114.45 76.8703C114.098 76.6642 113.965 76.2035 114.171 75.8519C114.377 75.5004 114.838 75.367 115.189 75.5731L122.39 79.7312C122.741 79.9373 122.875 80.3979 122.669 80.7495C122.535 80.9919 122.281 81.1253 122.026 81.1253Z" fill="#0C6DC2"/>
<path d="M118.414 83.1978C118.002 83.1978 117.662 82.8584 117.662 82.4462V74.1422C117.662 73.7301 118.002 73.3906 118.414 73.3906C118.826 73.3906 119.165 73.7301 119.165 74.1422V82.4462C119.165 82.8705 118.826 83.1978 118.414 83.1978Z" fill="#0C6DC2"/>
<path d="M136.78 93.8055C136.647 93.8055 136.525 93.7691 136.404 93.7085L129.809 89.902C129.579 89.7687 129.434 89.5262 129.434 89.2595V83.7074C129.434 83.4407 129.579 83.1982 129.809 83.0649C130.04 82.9315 130.331 82.9315 130.561 83.0649L137.156 86.8714C137.386 87.0047 137.532 87.2472 137.532 87.5139V93.0781C137.532 93.3448 137.386 93.5873 137.156 93.7206C137.034 93.7691 136.913 93.8055 136.78 93.8055ZM130.925 88.811L136.028 91.7568V87.926L130.925 84.9802V88.811Z" fill="#0C6DC2"/>
<path d="M139.192 92.4602C139.059 92.4602 138.938 92.4238 138.817 92.3632L136.404 90.9691C136.053 90.763 135.919 90.3024 136.125 89.9508C136.331 89.5993 136.792 89.4659 137.144 89.672L138.441 90.4236V86.5929L133.337 83.6471V85.0896C133.337 85.5018 132.998 85.8413 132.586 85.8413C132.173 85.8413 131.834 85.5018 131.834 85.0896V82.3499C131.834 82.0832 131.979 81.8408 132.21 81.7074C132.44 81.5741 132.731 81.5741 132.961 81.7074L139.568 85.5139C139.799 85.6473 139.944 85.8897 139.944 86.1564V91.7207C139.944 91.9874 139.799 92.2299 139.568 92.3632C139.459 92.4238 139.326 92.4602 139.192 92.4602Z" fill="#0C6DC2"/>
<path d="M0.752357 129.481C0.752357 126.244 2.98292 123.141 6.85004 120.849L11.5173 128.911C12.4264 130.475 15.3359 131.311 18.0392 130.79L26.5978 129.129C27.6525 128.923 28.5011 128.547 29.1072 128.062L25.1795 121.286V117.31C32.8167 117.976 39.569 121.007 42.1875 125.529C42.7815 126.547 43.0967 127.577 43.2179 128.608L43.2422 128.596C43.6786 131.578 43.2422 134.402 50.9279 138.839L105.092 170.104C112.402 174.322 114.208 173.801 120.015 174.516C126.44 175.171 132.065 177.777 134.271 181.596C134.901 182.675 135.168 183.778 135.192 184.857L135.18 189.185C135.071 191.888 133.204 194.458 129.955 196.373L125.918 189.415C125.131 188.069 122.609 187.342 120.281 187.791L112.887 189.221C112.099 189.379 111.444 189.645 110.935 189.985L114.111 195.452V199.44C107.504 198.871 101.685 196.24 99.4184 192.337C98.9941 191.621 98.7274 190.894 98.582 190.167C97.6 185.778 98.2425 185.572 91.1387 181.475L36.405 149.871C30.2952 146.343 27.4221 145.689 21.3729 145.689L21.3851 145.677C12.7295 145.531 4.75282 142.343 1.84339 137.324C1.11604 136.063 0.776602 134.79 0.752357 133.542H0.740234V129.481H0.752357Z" fill="#B2E0FF"/>
<path d="M114.122 200.205C114.098 200.205 114.074 200.205 114.062 200.205C106.958 199.587 101.103 196.726 98.7873 192.725C98.3387 191.949 98.0357 191.149 97.866 190.325C97.769 189.901 97.6963 189.513 97.6114 189.149C96.981 186.058 96.8962 185.658 90.7742 182.13L36.0406 150.526C29.9308 146.999 27.1183 146.477 21.3843 146.453C21.3237 146.453 21.2752 146.453 21.2146 146.429C12.0135 146.247 4.17018 142.828 1.20014 137.713C0.46066 136.428 0.0606139 135.082 0.0121234 133.7C7.39726e-07 133.652 0 133.603 0 133.555V129.481C0 129.433 7.39726e-07 129.384 0.0121234 129.348C0.0606139 125.93 2.4124 122.608 6.46136 120.22C6.63108 120.123 6.83716 120.086 7.03112 120.135C7.22509 120.183 7.38268 120.317 7.49178 120.486L12.159 128.548C12.8257 129.688 15.2745 130.572 17.9051 130.063L26.4637 128.403C27.0819 128.281 27.6517 128.087 28.1124 127.833L24.5362 121.662C24.4756 121.553 24.4392 121.42 24.4392 121.287V117.31C24.4392 117.104 24.5241 116.898 24.6817 116.765C24.8393 116.619 25.0453 116.559 25.2514 116.571C33.4463 117.286 40.1865 120.571 42.8414 125.166C43.4233 126.172 43.7991 127.239 43.9445 128.354C43.9566 128.403 43.9809 128.451 43.9809 128.5C44.0294 128.79 44.0658 129.094 44.09 129.384C44.3931 131.954 44.684 134.379 51.303 138.198L105.467 169.462C111.407 172.893 113.553 173.111 117.444 173.499C118.244 173.584 119.117 173.668 120.099 173.79C126.972 174.481 132.658 177.342 134.913 181.233C135.567 182.372 135.919 183.585 135.931 184.858L135.919 189.198C135.798 192.204 133.81 194.98 130.33 197.029C130.161 197.126 129.955 197.162 129.761 197.114C129.567 197.065 129.397 196.932 129.3 196.762L125.263 189.804C124.718 188.87 122.596 188.119 120.414 188.543L113.019 189.973C112.643 190.046 112.28 190.155 111.965 190.289L114.753 195.089C114.813 195.198 114.85 195.332 114.85 195.465V199.453C114.85 199.659 114.765 199.865 114.607 199.999C114.486 200.132 114.316 200.205 114.122 200.205ZM21.554 144.962C27.4335 144.962 30.4884 145.605 36.7922 149.241L91.5258 180.833C98.0357 184.591 98.3388 185.294 99.0782 188.846C99.151 189.198 99.2358 189.585 99.3328 190.022C99.4662 190.701 99.7207 191.355 100.084 191.974C102.073 195.404 107.128 197.926 113.383 198.629V195.671L110.316 190.373C110.122 190.034 110.219 189.598 110.546 189.379C111.164 188.955 111.916 188.664 112.777 188.494L120.172 187.064C122.826 186.555 125.651 187.415 126.597 189.04L130.246 195.332C132.876 193.598 134.367 191.428 134.464 189.149L134.476 184.845C134.464 183.851 134.185 182.869 133.652 181.96C131.627 178.469 126.391 175.899 119.966 175.256C118.971 175.135 118.123 175.05 117.323 174.966C113.347 174.565 110.958 174.335 104.74 170.735L50.5756 139.47C43.3141 135.276 42.9626 132.355 42.6232 129.542C42.5989 129.312 42.5747 129.094 42.5383 128.863C42.5141 128.803 42.5019 128.742 42.4898 128.681C42.3807 127.712 42.0655 126.766 41.5564 125.893C39.2167 121.868 33.2766 118.923 25.9424 118.123V121.08L29.7732 127.687C29.955 128.015 29.8823 128.415 29.5913 128.645C28.8519 129.227 27.882 129.639 26.7546 129.857L18.1961 131.518C15.1533 132.112 11.9408 131.118 10.874 129.287L6.58259 121.893C3.33372 123.99 1.50321 126.73 1.50321 129.481C1.50321 129.53 1.50321 129.566 1.49108 129.615V133.421C1.50321 133.458 1.50321 133.494 1.50321 133.543C1.52745 134.706 1.85476 135.87 2.49726 136.961C5.18849 141.592 12.7772 144.792 21.4086 144.938C21.457 144.938 21.5055 144.95 21.554 144.962Z" fill="#0C6DC2"/>
<path d="M98.5932 186.191C97.6113 181.803 98.2538 181.597 91.1499 177.499L36.4162 145.896C30.3064 142.368 27.4334 141.713 21.3842 141.713L21.3963 141.701C12.7408 141.556 4.76406 138.368 1.85463 133.349C-0.763855 128.827 1.44246 124.051 6.84916 120.85L11.5164 128.912C12.4256 130.476 15.335 131.312 18.0383 130.791L26.5969 129.13C29.3003 128.609 30.755 126.912 29.8458 125.36L25.1907 117.311C32.8279 117.977 39.5802 121.008 42.1987 125.53C42.7927 126.548 43.1079 127.578 43.2292 128.609L43.2534 128.597C43.6898 131.579 43.2534 134.403 50.9392 138.84L105.103 170.105C112.413 174.323 114.219 173.802 120.026 174.517C126.451 175.172 132.076 177.778 134.282 181.597C136.549 185.5 134.634 189.634 129.967 192.398L125.93 185.44C125.142 184.094 122.62 183.367 120.293 183.815L112.898 185.246C110.558 185.694 109.297 187.161 110.085 188.507L114.122 195.465C107.515 194.895 101.697 192.265 99.4297 188.361C99.0054 187.646 98.7387 186.919 98.5932 186.191Z" fill="white"/>
<path d="M114.122 196.217C114.098 196.217 114.074 196.217 114.062 196.217C106.958 195.599 101.103 192.738 98.7873 188.738C98.3388 187.974 98.0357 187.162 97.866 186.349C97.769 185.913 97.6842 185.525 97.6114 185.161C96.9811 182.07 96.8962 181.67 90.7743 178.142L36.0406 146.551C29.9793 143.047 27.1911 142.478 21.4935 142.478C21.4571 142.478 21.4207 142.478 21.3843 142.478C21.3237 142.478 21.2752 142.478 21.2146 142.453C12.0136 142.272 4.17022 138.853 1.20017 133.737C-1.52742 129.022 0.53343 123.724 6.4614 120.221C6.63111 120.124 6.8372 120.087 7.03116 120.136C7.22512 120.184 7.38272 120.317 7.49182 120.487L12.159 128.549C12.8258 129.688 15.2867 130.573 17.893 130.064L26.4516 128.403C28.1245 128.076 28.9974 127.336 29.2641 126.755C29.4217 126.415 29.3974 126.088 29.2034 125.736L24.5362 117.675C24.3908 117.432 24.4029 117.129 24.5484 116.899C24.6938 116.669 24.9726 116.535 25.2393 116.559C33.4342 117.275 40.1744 120.56 42.8293 125.154C43.4112 126.161 43.787 127.227 43.9324 128.343C43.9446 128.391 43.9688 128.44 43.9688 128.488C44.0173 128.779 44.0537 129.082 44.0779 129.373C44.381 131.943 44.6719 134.368 51.2909 138.186L105.455 169.45C111.395 172.881 113.541 173.099 117.432 173.487C118.232 173.572 119.105 173.657 120.087 173.778C126.96 174.469 132.646 177.33 134.901 181.222C137.289 185.343 135.495 189.986 130.318 193.041C130.149 193.138 129.942 193.174 129.749 193.114C129.555 193.065 129.385 192.944 129.288 192.762L125.251 185.804C124.706 184.87 122.584 184.119 120.402 184.543L113.007 185.974C111.601 186.24 110.861 186.859 110.643 187.343C110.522 187.61 110.534 187.853 110.692 188.131L114.729 195.09C114.874 195.332 114.862 195.635 114.716 195.866C114.619 196.096 114.377 196.217 114.122 196.217ZM21.5541 140.974C27.4335 140.974 30.4884 141.617 36.7922 145.254L91.5259 176.857C98.0357 180.615 98.3388 181.319 99.0783 184.87C99.151 185.222 99.2359 185.61 99.3328 186.046C99.3328 186.058 99.3328 186.058 99.3328 186.071C99.4662 186.725 99.7086 187.38 100.072 188.01C102 191.332 106.776 193.793 112.728 194.593L109.431 188.907C109.031 188.228 108.995 187.465 109.31 186.749C109.795 185.671 111.055 184.858 112.753 184.531L120.147 183.101C122.802 182.591 125.627 183.452 126.572 185.077L130.221 191.38C134.185 188.774 135.495 185.222 133.628 181.997C131.603 178.506 126.366 175.936 119.941 175.294C118.947 175.172 118.099 175.088 117.299 175.003C113.322 174.603 110.934 174.372 104.715 170.772L50.5514 139.508C43.2899 135.313 42.9384 132.392 42.5989 129.579C42.5747 129.349 42.5505 129.131 42.5141 128.9C42.4898 128.84 42.4777 128.779 42.4656 128.718C42.3565 127.749 42.0413 126.803 41.5322 125.93C39.2652 122.015 33.604 119.129 26.5486 118.232L30.4763 125.021C30.9127 125.773 30.9612 126.621 30.6097 127.397C30.0642 128.597 28.6094 129.531 26.7183 129.894L18.1597 131.555C15.117 132.149 11.9045 131.155 10.8377 129.325L6.54625 121.93C1.80631 124.985 0.242488 129.191 2.46093 133.01C5.15215 137.641 12.7409 140.841 21.3722 140.987C21.4571 140.962 21.5056 140.962 21.5541 140.974Z" fill="#0C6DC2"/>
<path d="M29.1309 128.063L25.2031 121.287V117.311L29.8703 125.372C30.4159 126.318 30.0764 127.312 29.1309 128.063Z" fill="#0C6DC2"/>
<path d="M29.1305 128.815C29.082 128.815 29.0335 128.815 28.985 128.803C28.7668 128.767 28.585 128.633 28.4759 128.44L24.5482 121.663C24.4875 121.554 24.4512 121.421 24.4512 121.287V117.311C24.4512 116.972 24.6815 116.681 25.0088 116.584C25.3361 116.499 25.6756 116.644 25.8453 116.935L30.5125 124.997C31.2277 126.233 30.8762 127.639 29.5912 128.658C29.4578 128.767 29.2881 128.815 29.1305 128.815ZM25.9423 121.093L29.2517 126.803C29.4093 126.488 29.4457 126.136 29.2154 125.736L25.9301 120.087V121.093H25.9423Z" fill="#0C6DC2"/>
<path d="M38.0036 143.073C36.1004 141.97 36.1004 140.188 38.0036 139.097C39.9069 137.994 42.9981 137.994 44.9014 139.097L104.375 173.44C106.278 174.543 106.278 176.326 104.375 177.417C102.472 178.52 99.3805 178.52 97.4772 177.417L38.0036 143.073Z" fill="#0C6DC2"/>
<path d="M100.921 178.992C99.5509 178.992 98.1689 178.689 97.1021 178.07L37.6285 143.727C36.4648 143.06 35.8223 142.127 35.8223 141.096C35.8223 140.066 36.4648 139.133 37.6285 138.454C39.7742 137.217 43.1322 137.217 45.2779 138.454L104.752 172.797C105.915 173.464 106.558 174.397 106.558 175.44C106.558 176.47 105.915 177.404 104.752 178.083C103.685 178.677 102.303 178.992 100.921 178.992ZM41.4593 139.011C40.3319 139.011 39.2166 139.254 38.3801 139.739C37.7134 140.127 37.3255 140.624 37.3255 141.084C37.3255 141.545 37.7134 142.042 38.3801 142.418L97.8538 176.761C99.5267 177.719 102.339 177.719 104.012 176.761C104.679 176.373 105.067 175.888 105.067 175.416C105.067 174.943 104.679 174.458 104.012 174.07L44.5384 139.739C43.702 139.254 42.5867 139.011 41.4593 139.011Z" fill="#0C6DC2"/>
<path d="M97.4775 177.415L38.0039 143.084C39.9072 141.981 42.9984 141.981 44.9017 143.084L104.375 177.415C102.472 178.519 99.3808 178.519 97.4775 177.415Z" fill="#B2E0FF"/>
<path d="M100.921 178.991C99.5511 178.991 98.1691 178.688 97.1023 178.07L37.6287 143.739C37.3984 143.605 37.2529 143.363 37.2529 143.096C37.2529 142.83 37.3984 142.587 37.6287 142.454C39.7744 141.217 43.1324 141.217 45.2781 142.454L104.752 176.785C104.982 176.918 105.128 177.161 105.128 177.428C105.128 177.694 104.982 177.937 104.752 178.07C103.685 178.676 102.303 178.991 100.921 178.991ZM97.854 176.773C99.1268 177.512 101.079 177.682 102.667 177.294L44.5386 143.727C43.2658 142.987 41.314 142.817 39.7259 143.205L97.854 176.773Z" fill="#0C6DC2"/>
<path d="M123.238 183.852C124.463 184.118 125.481 184.664 125.929 185.44L129.966 192.398V196.386L125.929 189.428C125.481 188.664 124.463 188.107 123.238 187.84V183.852Z" fill="#0C6DC2"/>
<path d="M129.967 197.138C129.7 197.138 129.457 197.005 129.324 196.762L125.287 189.804C124.972 189.258 124.148 188.798 123.093 188.579C122.754 188.507 122.499 188.204 122.499 187.852V183.864C122.499 183.633 122.596 183.427 122.778 183.282C122.96 183.136 123.178 183.088 123.408 183.136C124.911 183.464 126.051 184.143 126.584 185.076L130.621 192.046C130.682 192.156 130.718 192.289 130.718 192.422V196.411C130.718 196.75 130.488 197.041 130.161 197.138C130.1 197.126 130.039 197.138 129.967 197.138ZM123.99 187.258C125.202 187.622 126.112 188.24 126.572 189.04L129.215 193.598V192.592L125.275 185.803C125.057 185.428 124.596 185.088 123.978 184.846V187.258H123.99Z" fill="#0C6DC2"/>
<path d="M99.4302 188.361C100.17 189.646 101.333 190.774 102.752 191.756V195.744C101.333 194.762 100.17 193.635 99.4302 192.35C99.0059 191.634 98.7392 190.907 98.5938 190.18V186.191C98.7392 186.919 99.0059 187.646 99.4302 188.361Z" fill="#0C6DC2"/>
<path d="M102.751 196.496C102.606 196.496 102.448 196.448 102.327 196.363C100.739 195.26 99.5386 194.035 98.787 192.726C98.3384 191.95 98.0354 191.15 97.8656 190.326L97.8535 186.192C97.8535 185.804 98.1445 185.489 98.5324 185.453C98.9082 185.416 99.2597 185.671 99.3325 186.047C99.4658 186.701 99.7083 187.356 100.072 187.986C100.727 189.114 101.769 190.168 103.175 191.15C103.381 191.296 103.503 191.526 103.503 191.769V195.757C103.503 196.036 103.345 196.29 103.103 196.424C102.994 196.472 102.872 196.496 102.751 196.496ZM99.3446 189.586V190.18C99.4537 190.69 99.7083 191.344 100.072 191.975C100.533 192.763 101.175 193.514 101.999 194.229V192.144C100.908 191.356 100.023 190.496 99.3446 189.586Z" fill="#0C6DC2"/>
<path d="M1.85414 137.337C1.12678 136.076 0.787344 134.803 0.763099 133.555H0.750977V129.481H0.763099C0.763099 130.766 1.11466 132.064 1.85414 133.349C2.87244 135.094 4.52111 136.622 6.58196 137.882V141.871C4.52111 140.622 2.87244 139.095 1.85414 137.337Z" fill="#0C6DC2"/>
<path d="M6.59431 142.622C6.46096 142.622 6.32761 142.586 6.20638 142.513C3.95157 141.143 2.26653 139.531 1.21186 137.712C0.472378 136.427 0.0723317 135.082 0.0238412 133.7C0.0117186 133.651 0.0117188 133.603 0.0117188 133.554V129.481C0.0117188 129.069 0.351152 128.729 0.763321 128.729C1.17549 128.729 1.52705 129.057 1.52705 129.469C1.52705 130.657 1.86648 131.833 2.5211 132.96C3.44242 134.548 4.94563 135.991 6.99435 137.227C7.21256 137.361 7.35803 137.603 7.35803 137.87V141.858C7.35803 142.125 7.21256 142.38 6.98223 142.513C6.84888 142.586 6.71553 142.622 6.59431 142.622ZM2.50898 136.961C3.24846 138.246 4.37586 139.422 5.8427 140.476V138.294C4.00006 137.13 2.56959 135.785 1.57554 134.306C1.69676 135.215 2.01195 136.1 2.50898 136.961Z" fill="#0C6DC2"/>
<path d="M117.468 102.376L87.3431 84.9925C85.9248 84.1802 84.6398 84.0833 83.6942 84.5924L83.6821 84.5803L80.1665 86.6048C79.2088 87.1503 78.627 88.3262 78.627 89.9991V108.559C78.627 111.905 80.9787 115.966 83.876 117.639L114.001 135.023C115.419 135.847 116.704 135.932 117.65 135.423V135.435L117.71 135.398L121.153 133.41C122.111 132.865 122.693 131.689 122.693 130.016V111.456C122.717 108.122 120.365 104.049 117.468 102.376Z" fill="#B2E0FF"/>
<path d="M116.353 136.501C115.504 136.501 114.583 136.222 113.637 135.689L83.5126 118.293C80.3607 116.475 77.8877 112.195 77.8877 108.559V89.9989C77.8877 88.1078 78.5666 86.6773 79.8031 85.962L83.3186 83.9376C83.3792 83.9012 83.4277 83.877 83.4884 83.8648C84.6885 83.2951 86.1796 83.4648 87.7191 84.3497L117.844 101.746C120.996 103.564 123.469 107.843 123.469 111.48V130.04C123.469 131.931 122.79 133.374 121.553 134.077L118.111 136.065C118.074 136.089 118.026 136.113 117.977 136.125C117.48 136.368 116.935 136.501 116.353 136.501ZM83.9369 85.2953L80.5425 87.2592C79.7909 87.6956 79.3788 88.6654 79.3788 89.9989V108.559C79.3788 111.662 81.573 115.444 84.2642 116.996L114.389 134.38C115.516 135.034 116.547 135.168 117.31 134.768C117.335 134.756 117.371 134.743 117.395 134.731L120.802 132.768C121.553 132.331 121.966 131.361 121.966 130.028V111.456C121.966 108.413 119.735 104.546 117.08 103.019L86.9675 85.6347C85.8401 84.9801 84.8097 84.8468 84.046 85.2468C84.0096 85.2711 83.9733 85.2832 83.9369 85.2953Z" fill="#0C6DC2"/>
<path d="M117.65 135.433L117.711 135.409L121.154 133.421C122.111 132.876 122.693 131.7 122.693 130.027V111.455C122.693 109.903 122.172 108.206 121.336 106.654L93.0898 122.959L113.989 135.021C115.432 135.858 116.705 135.943 117.65 135.433Z" fill="#0C6DC2"/>
<path d="M116.353 136.501C115.504 136.501 114.583 136.222 113.638 135.689L92.7381 123.615C92.5078 123.481 92.3623 123.239 92.3623 122.972C92.3623 122.705 92.5078 122.463 92.7381 122.33L120.984 106.025C121.154 105.928 121.372 105.903 121.566 105.952C121.76 106.013 121.929 106.134 122.014 106.316C122.948 108.049 123.457 109.88 123.457 111.468V130.028C123.457 131.919 122.778 133.361 121.541 134.064L118.099 136.052C118.062 136.077 118.014 136.101 117.965 136.113C117.48 136.368 116.935 136.501 116.353 136.501ZM94.605 122.972L114.389 134.392C115.517 135.046 116.547 135.18 117.311 134.78C117.335 134.767 117.371 134.755 117.396 134.743L120.802 132.779C121.554 132.343 121.966 131.373 121.966 130.04V111.456C121.966 110.316 121.638 108.995 121.044 107.698L94.605 122.972Z" fill="#0C6DC2"/>
<path d="M114.013 104.375L83.8887 86.9795C80.9914 85.3065 78.6396 86.6522 78.6396 89.998V108.558C78.6396 111.904 80.9914 115.965 83.8887 117.638L114.013 135.021C116.911 136.694 119.263 135.349 119.263 132.003V113.443C119.263 110.122 116.911 106.048 114.013 104.375Z" fill="white"/>
<path d="M116.365 136.501C115.516 136.501 114.583 136.222 113.637 135.677L83.5126 118.293C80.3607 116.474 77.8877 112.195 77.8877 108.558V89.9986C77.8877 88.1074 78.5666 86.677 79.7909 85.9617C81.0275 85.2465 82.6155 85.3798 84.2642 86.3254L114.389 103.721C117.541 105.54 120.014 109.819 120.014 113.456V132.016C120.014 133.907 119.335 135.337 118.111 136.052C117.577 136.355 116.995 136.501 116.365 136.501ZM81.5366 87.0043C81.1608 87.0043 80.8335 87.0891 80.5304 87.2588C79.7788 87.6953 79.3667 88.6651 79.3667 89.9986V108.558C79.3667 111.662 81.5609 115.444 84.2521 116.996L114.377 134.38C115.541 135.046 116.595 135.18 117.347 134.755C118.098 134.319 118.511 133.349 118.511 132.016V113.456C118.511 110.352 116.316 106.57 113.625 105.018L83.5126 87.6225C82.7974 87.2104 82.1306 87.0043 81.5366 87.0043Z" fill="#0C6DC2"/>
<path d="M103.284 119.093C103.163 119.093 103.03 119.057 102.909 118.996L86.9311 109.771C86.5795 109.565 86.4461 109.104 86.6522 108.753C86.8583 108.401 87.319 108.268 87.6705 108.474L103.648 117.699C104 117.905 104.133 118.366 103.927 118.718C103.794 118.96 103.539 119.093 103.284 119.093ZM110.594 118.475C110.473 118.475 110.34 118.439 110.219 118.378L86.9311 104.934C86.5795 104.728 86.4461 104.267 86.6522 103.916C86.8583 103.564 87.319 103.431 87.6705 103.637L110.958 117.081C111.31 117.287 111.443 117.748 111.237 118.099C111.104 118.342 110.849 118.475 110.594 118.475ZM110.594 113.638C110.473 113.638 110.34 113.602 110.219 113.541L86.9311 100.085C86.5795 99.879 86.4461 99.4183 86.6522 99.0668C86.8583 98.7152 87.319 98.5819 87.6705 98.788L110.958 112.244C111.31 112.45 111.443 112.911 111.237 113.262C111.104 113.505 110.849 113.638 110.594 113.638Z" fill="#0C6DC2"/>
</svg>
