<svg width="48" height="48" viewBox="0 0 48 48" fill="none" xmlns="http://www.w3.org/2000/svg">
<circle cx="27" cy="27" r="16" fill="#B2E0FF"/>
<circle cx="22" cy="22" r="16" stroke="#006B9E" stroke-width="1.5" stroke-linecap="round" stroke-linejoin="round"/>
<path d="M20.52 27.64C21.7067 27.64 22.5533 27.4067 23.06 26.94C23.58 26.4733 23.84 25.8467 23.84 25.06C23.84 24.5533 23.7333 24.1267 23.52 23.78C23.3067 23.4333 23.0267 23.16 22.68 22.96C22.3333 22.7467 21.9267 22.6 21.46 22.52C21.0067 22.4267 20.54 22.38 20.06 22.38H19.58V20.86H20.24C20.5733 20.86 20.9133 20.8267 21.26 20.76C21.62 20.6933 21.9467 20.5733 22.24 20.4C22.5333 20.2267 22.7733 19.9933 22.96 19.7C23.1467 19.3933 23.24 19.0133 23.24 18.56C23.24 18.1867 23.1733 17.8667 23.04 17.6C22.9067 17.3333 22.7267 17.1133 22.5 16.94C22.2867 16.7667 22.0333 16.6467 21.74 16.58C21.46 16.5 21.16 16.46 20.84 16.46C20.2 16.46 19.6533 16.5533 19.2 16.74C18.76 16.9267 18.3867 17.12 18.08 17.32L17.36 15.9C17.52 15.7933 17.72 15.68 17.96 15.56C18.2133 15.4267 18.4933 15.3067 18.8 15.2C19.1067 15.0933 19.4333 15.0067 19.78 14.94C20.14 14.86 20.5133 14.82 20.9 14.82C21.6333 14.82 22.2667 14.9133 22.8 15.1C23.3333 15.2733 23.7733 15.5267 24.12 15.86C24.4667 16.18 24.7267 16.5667 24.9 17.02C25.0733 17.46 25.16 17.94 25.16 18.46C25.16 19.18 24.9533 19.8 24.54 20.32C24.1267 20.8267 23.6267 21.2133 23.04 21.48C23.4 21.5867 23.7467 21.74 24.08 21.94C24.4133 22.14 24.7 22.3933 24.94 22.7C25.1933 23.0067 25.3933 23.36 25.54 23.76C25.7 24.16 25.78 24.6067 25.78 25.1C25.78 25.7 25.6733 26.26 25.46 26.78C25.26 27.2867 24.94 27.7267 24.5 28.1C24.0733 28.4733 23.5333 28.7667 22.88 28.98C22.2267 29.1933 21.4533 29.3 20.56 29.3C20.2133 29.3 19.8533 29.2733 19.48 29.22C19.12 29.1667 18.78 29.1 18.46 29.02C18.14 28.94 17.86 28.86 17.62 28.78C17.38 28.7 17.2067 28.6333 17.1 28.58L17.46 26.96C17.6867 27.0667 18.06 27.2067 18.58 27.38C19.1133 27.5533 19.76 27.64 20.52 27.64Z" fill="#006B9E"/>
</svg>
