<svg width="48" height="48" viewBox="0 0 48 48" fill="none" xmlns="http://www.w3.org/2000/svg">
<circle cx="27" cy="27" r="16" fill="#B2E0FF"/>
<circle cx="22" cy="22" r="16" stroke="#006B9E" stroke-width="1.5" stroke-linecap="round" stroke-linejoin="round"/>
<path d="M17.26 23.44C17.26 22.0933 17.4467 20.9067 17.82 19.88C18.1933 18.84 18.72 17.9667 19.4 17.26C20.0933 16.5533 20.9267 16.02 21.9 15.66C22.8867 15.2867 23.9933 15.0933 25.22 15.08L25.36 16.64C24.5733 16.6533 23.8533 16.74 23.2 16.9C22.56 17.06 21.9867 17.3133 21.48 17.66C20.9733 18.0067 20.5467 18.46 20.2 19.02C19.8533 19.5667 19.5933 20.2467 19.42 21.06C19.7667 20.9 20.1533 20.7667 20.58 20.66C21.02 20.5533 21.4733 20.5 21.94 20.5C22.7267 20.5 23.3933 20.62 23.94 20.86C24.4867 21.1 24.9333 21.42 25.28 21.82C25.6267 22.2067 25.8733 22.66 26.02 23.18C26.18 23.6867 26.26 24.22 26.26 24.78C26.26 25.2867 26.1733 25.8067 26 26.34C25.8267 26.8733 25.56 27.36 25.2 27.8C24.8533 28.24 24.4067 28.6 23.86 28.88C23.3133 29.16 22.6667 29.3 21.92 29.3C20.4 29.3 19.24 28.78 18.44 27.74C17.6533 26.7 17.26 25.2667 17.26 23.44ZM21.74 22.02C21.2733 22.02 20.84 22.0667 20.44 22.16C20.04 22.24 19.64 22.3667 19.24 22.54C19.2267 22.6867 19.2133 22.84 19.2 23C19.2 23.1467 19.2 23.2933 19.2 23.44C19.2 24.0267 19.24 24.58 19.32 25.1C19.4 25.62 19.54 26.08 19.74 26.48C19.9533 26.8667 20.2333 27.18 20.58 27.42C20.9267 27.6467 21.3667 27.76 21.9 27.76C22.34 27.76 22.7133 27.6667 23.02 27.48C23.3267 27.2933 23.58 27.0533 23.78 26.76C23.98 26.4667 24.12 26.1533 24.2 25.82C24.2933 25.4733 24.34 25.14 24.34 24.82C24.34 23.9133 24.12 23.22 23.68 22.74C23.2533 22.26 22.6067 22.02 21.74 22.02Z" fill="#006B9E"/>
</svg>
