<svg width="48" height="48" viewBox="0 0 48 48" fill="none" xmlns="http://www.w3.org/2000/svg">
<circle cx="27" cy="27" r="16" fill="#B2E0FF"/>
<circle cx="22" cy="22" r="16" stroke="#006B9E" stroke-width="1.5" stroke-linecap="round" stroke-linejoin="round"/>
<path d="M16.8 24.2C17.0533 23.6133 17.4 22.9333 17.84 22.16C18.28 21.3733 18.7733 20.5667 19.32 19.74C19.88 18.9133 20.4733 18.1 21.1 17.3C21.74 16.5 22.38 15.78 23.02 15.14H24.8V23.94H26.44V25.46H24.8V29H23V25.46H16.8V24.2ZM23 17.34C22.6 17.7667 22.1933 18.2467 21.78 18.78C21.38 19.3 20.9867 19.8467 20.6 20.42C20.2133 20.9933 19.8467 21.58 19.5 22.18C19.1667 22.78 18.8667 23.3667 18.6 23.94H23V17.34Z" fill="#006B9E"/>
</svg>
