<svg width="48" height="48" viewBox="0 0 48 48" fill="none" xmlns="http://www.w3.org/2000/svg">
<circle cx="27" cy="27" r="16" fill="#B2E0FF"/>
<circle cx="22" cy="22" r="16" stroke="#006B9E" stroke-width="1.5" stroke-linecap="round" stroke-linejoin="round"/>
<path d="M19.98 20.48C21.9933 20.56 23.4667 21 24.4 21.8C25.3467 22.6 25.82 23.6867 25.82 25.06C25.82 25.6733 25.7133 26.24 25.5 26.76C25.3 27.28 24.9867 27.7267 24.56 28.1C24.1467 28.4733 23.62 28.7667 22.98 28.98C22.34 29.1933 21.58 29.3 20.7 29.3C20.3533 29.3 20 29.2733 19.64 29.22C19.28 29.1667 18.9467 29.1 18.64 29.02C18.3333 28.94 18.06 28.86 17.82 28.78C17.58 28.7 17.4067 28.6333 17.3 28.58L17.66 26.96C17.8867 27.0667 18.2533 27.2067 18.76 27.38C19.28 27.5533 19.9133 27.64 20.66 27.64C21.26 27.64 21.76 27.5733 22.16 27.44C22.5733 27.3067 22.9067 27.1267 23.16 26.9C23.4133 26.6733 23.5933 26.4133 23.7 26.12C23.82 25.8133 23.88 25.4933 23.88 25.16C23.88 24.6533 23.7933 24.2067 23.62 23.82C23.4467 23.42 23.14 23.0867 22.7 22.82C22.26 22.5533 21.6733 22.3533 20.94 22.22C20.2067 22.0733 19.28 22 18.16 22C18.24 21.3467 18.3 20.7333 18.34 20.16C18.3933 19.5867 18.44 19.0267 18.48 18.48C18.52 17.9333 18.5533 17.3933 18.58 16.86C18.6067 16.3133 18.6333 15.74 18.66 15.14H25.34V16.72H20.28C20.2667 16.92 20.2467 17.1933 20.22 17.54C20.1933 17.8733 20.1667 18.2267 20.14 18.6C20.1133 18.96 20.0867 19.3133 20.06 19.66C20.0333 20.0067 20.0067 20.28 19.98 20.48Z" fill="#006B9E"/>
</svg>
