<svg width="48" height="48" viewBox="0 0 48 48" fill="none" xmlns="http://www.w3.org/2000/svg">
<circle cx="27" cy="27" r="16" fill="#B2E0FF"/>
<circle cx="22" cy="22" r="16" stroke="#006B9E" stroke-width="1.5" stroke-linecap="round" stroke-linejoin="round"/>
<path d="M25.34 18.68C25.34 19.16 25.24 19.6267 25.04 20.08C24.8533 20.52 24.6 20.96 24.28 21.4C23.96 21.8267 23.6 22.2533 23.2 22.68C22.8 23.0933 22.4 23.5 22 23.9C21.7733 24.1267 21.5067 24.3933 21.2 24.7C20.9067 25.0067 20.6267 25.3267 20.36 25.66C20.0933 25.9933 19.8667 26.3133 19.68 26.62C19.5067 26.9267 19.42 27.1933 19.42 27.42H25.8V29H17.4C17.3867 28.92 17.38 28.84 17.38 28.76C17.38 28.68 17.38 28.6067 17.38 28.54C17.38 27.9133 17.48 27.3333 17.68 26.8C17.8933 26.2533 18.1667 25.74 18.5 25.26C18.8333 24.78 19.2067 24.3267 19.62 23.9C20.0333 23.4733 20.44 23.06 20.84 22.66C21.1733 22.34 21.4867 22.0267 21.78 21.72C22.0867 21.4 22.3533 21.0867 22.58 20.78C22.82 20.46 23.0067 20.1333 23.14 19.8C23.2867 19.4667 23.36 19.1133 23.36 18.74C23.36 18.34 23.2933 18 23.16 17.72C23.04 17.44 22.8733 17.2067 22.66 17.02C22.4467 16.8333 22.1933 16.7 21.9 16.62C21.62 16.5267 21.32 16.48 21 16.48C20.6133 16.48 20.26 16.5333 19.94 16.64C19.62 16.7467 19.3333 16.8733 19.08 17.02C18.8267 17.1533 18.6133 17.3 18.44 17.46C18.2667 17.6067 18.1333 17.72 18.04 17.8L17.12 16.48C17.24 16.3467 17.42 16.1867 17.66 16C17.9 15.8 18.1867 15.6133 18.52 15.44C18.8533 15.2667 19.2267 15.12 19.64 15C20.0533 14.88 20.5 14.82 20.98 14.82C22.4333 14.82 23.52 15.16 24.24 15.84C24.9733 16.5067 25.34 17.4533 25.34 18.68Z" fill="#006B9E"/>
</svg>
